<mxfile host="app.diagrams.net" agent="Mozilla/5.0 (Windows NT 10.0; Win64; x64) AppleWebKit/537.36 (KHTML, like Gecko) Chrome/135.0.0.0 Safari/537.36" version="26.2.14">
  <diagram id="WI9T0HZ2pTsCkuznbFz-" name="Page-1">
    <mxGraphModel dx="2505" dy="2093" grid="1" gridSize="10" guides="1" tooltips="1" connect="1" arrows="1" fold="1" page="1" pageScale="1" pageWidth="827" pageHeight="1169" math="0" shadow="0">
      <root>
        <mxCell id="0" />
        <mxCell id="1" parent="0" />
        <mxCell id="iH1DfiRrB-YtXp9Mqeux-48" value="&lt;br&gt;&lt;div&gt;&lt;br/&gt;&lt;/div&gt;" style="rounded=0;whiteSpace=wrap;html=1;" vertex="1" parent="1">
          <mxGeometry x="390" y="-1012" width="250" height="168" as="geometry" />
        </mxCell>
        <mxCell id="iH1DfiRrB-YtXp9Mqeux-50" style="edgeStyle=orthogonalEdgeStyle;rounded=0;orthogonalLoop=1;jettySize=auto;html=1;entryX=0;entryY=0.5;entryDx=0;entryDy=0;" edge="1" parent="1" source="AcxdMaKK0mU5kZiv2lnr-31" target="iH1DfiRrB-YtXp9Mqeux-14">
          <mxGeometry relative="1" as="geometry" />
        </mxCell>
        <mxCell id="iH1DfiRrB-YtXp9Mqeux-59" style="edgeStyle=orthogonalEdgeStyle;rounded=0;orthogonalLoop=1;jettySize=auto;html=1;entryX=0;entryY=0.5;entryDx=0;entryDy=0;" edge="1" parent="1" source="AcxdMaKK0mU5kZiv2lnr-31" target="iH1DfiRrB-YtXp9Mqeux-27">
          <mxGeometry relative="1" as="geometry" />
        </mxCell>
        <mxCell id="AcxdMaKK0mU5kZiv2lnr-31" value="GitHub" style="shape=image;verticalLabelPosition=bottom;labelBackgroundColor=#ffffff;verticalAlign=top;aspect=fixed;imageAspect=0;image=data:image/svg+xml,PHN2ZyB4bWxuczpjYz0iaHR0cDovL2NyZWF0aXZlY29tbW9ucy5vcmcvbnMjIiB4bWxuczpkYz0iaHR0cDovL3B1cmwub3JnL2RjL2VsZW1lbnRzLzEuMS8iIHhtbG5zOmlua3NjYXBlPSJodHRwOi8vd3d3Lmlua3NjYXBlLm9yZy9uYW1lc3BhY2VzL2lua3NjYXBlIiB4bWxuczpyZGY9Imh0dHA6Ly93d3cudzMub3JnLzE5OTkvMDIvMjItcmRmLXN5bnRheC1ucyMiIHhtbG5zOnNvZGlwb2RpPSJodHRwOi8vc29kaXBvZGkuc291cmNlZm9yZ2UubmV0L0RURC9zb2RpcG9kaS0wLmR0ZCIgeG1sbnM6c3ZnPSJodHRwOi8vd3d3LnczLm9yZy8yMDAwL3N2ZyIgeG1sbnM9Imh0dHA6Ly93d3cudzMub3JnLzIwMDAvc3ZnIiB4bWxuczp4bGluaz0iaHR0cDovL3d3dy53My5vcmcvMTk5OS94bGluayIgdmVyc2lvbj0iMS4xIiBpZD0ic3ZnMTc1NjcxIiBpbmtzY2FwZTp2ZXJzaW9uPSIwLjkyLjMgKDI0MDU1NDYsIDIwMTgtMDMtMTEpIiBzb2RpcG9kaTpkb2NuYW1lPSJnaXRodWIuc3ZnIiB4PSIwcHgiIHk9IjBweCIgdmlld0JveD0iMCAwIDQ1LjI3IDQ1LjI5IiBzdHlsZT0iZW5hYmxlLWJhY2tncm91bmQ6bmV3IDAgMCA0NS4yNyA0NS4yOTsiIHhtbDpzcGFjZT0icHJlc2VydmUiPiYjeGE7PHNvZGlwb2RpOm5hbWVkdmlldyBib3JkZXJjb2xvcj0iIzY2NjY2NiIgYm9yZGVyb3BhY2l0eT0iMSIgZml0LW1hcmdpbi1ib3R0b209IjAiIGZpdC1tYXJnaW4tbGVmdD0iMCIgZml0LW1hcmdpbi1yaWdodD0iMCIgZml0LW1hcmdpbi10b3A9IjAiIGdyaWR0b2xlcmFuY2U9IjEwIiBndWlkZXRvbGVyYW5jZT0iMTAiIGlkPSJuYW1lZHZpZXcxNzU2NzMiIGlua3NjYXBlOmN1cnJlbnQtbGF5ZXI9InN2ZzE3NTY3MSIgaW5rc2NhcGU6Y3g9IjMwLjE3ODAyNSIgaW5rc2NhcGU6Y3k9IjMwLjE5NDMxOSIgaW5rc2NhcGU6cGFnZW9wYWNpdHk9IjAiIGlua3NjYXBlOnBhZ2VzaGFkb3c9IjIiIGlua3NjYXBlOndpbmRvdy1oZWlnaHQ9IjEwMTciIGlua3NjYXBlOndpbmRvdy1tYXhpbWl6ZWQ9IjEiIGlua3NjYXBlOndpbmRvdy13aWR0aD0iMTkyMCIgaW5rc2NhcGU6d2luZG93LXg9Ii04IiBpbmtzY2FwZTp3aW5kb3cteT0iLTgiIGlua3NjYXBlOnpvb209IjEwLjA5NTE1OCIgb2JqZWN0dG9sZXJhbmNlPSIxMCIgcGFnZWNvbG9yPSIjZmZmZmZmIiBzaG93Z3JpZD0iZmFsc2UiPiYjeGE7CTwvc29kaXBvZGk6bmFtZWR2aWV3PiYjeGE7PGcgaWQ9ImcxNzU2NjkiIHRyYW5zZm9ybT0idHJhbnNsYXRlKC05LjU2MjU0MTcsLTkuNTYxMzEpIj4mI3hhOwk8dGl0bGUgaWQ9InRpdGxlMTc1NjU5Ij5QYWdlLTE8L3RpdGxlPiYjeGE7CTxnIGlkPSJncm91cDIyNTAtMSIgdHJhbnNmb3JtPSJ0cmFuc2xhdGUoOS41NjMwOCwtOS4zNzg2OSkiPiYjeGE7CQk8dGl0bGUgaWQ9InRpdGxlMTc1NjYxIj5HaXRIdWI8L3RpdGxlPiYjeGE7CQk8ZyBpZD0ic2hhcGUyMjUxLTIiPiYjeGE7CQkJPHRpdGxlIGlkPSJ0aXRsZTE3NTY2MyI+U2hlZXQuMjI1MTwvdGl0bGU+JiN4YTsJCQk8cGF0aCBpZD0icGF0aDE3NTY2NSIgaW5rc2NhcGU6Y29ubmVjdG9yLWN1cnZhdHVyZT0iMCIgZD0iTTIyLjYzLDE4Ljk0QzEwLjE0LDE4Ljk0LDAsMjkuMzMsMCw0Mi4xNSAgICAgYy0wLjA3LDkuODksNi4xNSwxOC43MywxNS40OCwyMi4wMWMxLjEzLDAuMjIsMS41NC0wLjUsMS41NC0xLjExYzAtMC42MiwwLTIuMDEsMC0zLjk1Yy02LjI5LDEuNDEtNy42Mi0zLjExLTcuNjItMy4xMSAgICAgYy0xLjAzLTIuNjgtMi41MS0zLjQtMi41MS0zLjRjLTIuMDYtMS40MSwwLjE1LTEuNDEsMC4xNS0xLjQxYzIuMjcsMC4xNiwzLjQ3LDIuMzksMy40NywyLjM5YzIuMDIsMy41NCw1LjMsMi41Miw2LjU4LDEuOTMgICAgIGMwLjEtMS4xNywwLjYtMi4yNiwxLjQyLTMuMUMxMy40OCw1MS44MSw4LjIsNDkuODIsOC4yLDQwLjkyYy0wLjA0LTIuMjksMC43OS00LjUxLDIuMzItNi4yMmMtMC42OS0yLTAuNjEtNC4xOSwwLjIyLTYuMTQgICAgIGMwLDAsMS45MS0wLjYyLDYuMjMsMi40YzMuNy0xLjA0LDcuNjItMS4wNCwxMS4zMiwwYzQuMzItMyw2LjIyLTIuMzcsNi4yMi0yLjM3YzAuODMsMS45NSwwLjkxLDQuMTQsMC4yMiw2LjE0ICAgICBjMS41MywxLjcsMi4zNywzLjkzLDIuMzMsNi4yMmMwLDguOTEtNS4yOSwxMC44OC0xMC4zMywxMS40NWMwLjgxLDAuNzEsMS41MywyLjEyLDEuNTMsNC4zYzAsMy4xMSwwLDUuNjEsMCw2LjM3ICAgICBjMCwwLjYyLDAuNDEsMS4zNCwxLjU2LDEuMTJjOS4zMy0zLjMsMTUuNTMtMTIuMTUsMTUuNDUtMjIuMDRDNDUuMjcsMjkuMzMsMzUuMTMsMTguOTQsMjIuNjMsMTguOTR6Ii8+JiN4YTsJCTwvZz4mI3hhOwk8L2c+JiN4YTs8L2c+JiN4YTs8L3N2Zz4=;spacingTop=4;" parent="1" vertex="1">
          <mxGeometry x="-360" y="-709" width="55.5" height="55.5" as="geometry" />
        </mxCell>
        <mxCell id="iH1DfiRrB-YtXp9Mqeux-4" style="edgeStyle=orthogonalEdgeStyle;rounded=0;orthogonalLoop=1;jettySize=auto;html=1;entryX=0;entryY=0.5;entryDx=0;entryDy=0;" edge="1" parent="1" source="iH1DfiRrB-YtXp9Mqeux-1" target="AcxdMaKK0mU5kZiv2lnr-31">
          <mxGeometry relative="1" as="geometry" />
        </mxCell>
        <mxCell id="iH1DfiRrB-YtXp9Mqeux-7" value="Push&amp;nbsp;" style="edgeLabel;html=1;align=center;verticalAlign=middle;resizable=0;points=[];" vertex="1" connectable="0" parent="iH1DfiRrB-YtXp9Mqeux-4">
          <mxGeometry x="-0.3498" y="-4" relative="1" as="geometry">
            <mxPoint x="1" as="offset" />
          </mxGeometry>
        </mxCell>
        <mxCell id="iH1DfiRrB-YtXp9Mqeux-1" value="Engineer" style="shape=image;verticalLabelPosition=bottom;labelBackgroundColor=none;verticalAlign=top;aspect=fixed;imageAspect=0;image=data:image/svg+xml,PHN2ZyB4bWxuczpjYz0iaHR0cDovL2NyZWF0aXZlY29tbW9ucy5vcmcvbnMjIiB4bWxuczpkYz0iaHR0cDovL3B1cmwub3JnL2RjL2VsZW1lbnRzLzEuMS8iIHhtbG5zOmlua3NjYXBlPSJodHRwOi8vd3d3Lmlua3NjYXBlLm9yZy9uYW1lc3BhY2VzL2lua3NjYXBlIiB4bWxuczpyZGY9Imh0dHA6Ly93d3cudzMub3JnLzE5OTkvMDIvMjItcmRmLXN5bnRheC1ucyMiIHhtbG5zOnNvZGlwb2RpPSJodHRwOi8vc29kaXBvZGkuc291cmNlZm9yZ2UubmV0L0RURC9zb2RpcG9kaS0wLmR0ZCIgeG1sbnM6c3ZnPSJodHRwOi8vd3d3LnczLm9yZy8yMDAwL3N2ZyIgeG1sbnM9Imh0dHA6Ly93d3cudzMub3JnLzIwMDAvc3ZnIiB4bWxuczp4bGluaz0iaHR0cDovL3d3dy53My5vcmcvMTk5OS94bGluayIgdmVyc2lvbj0iMS4xIiBpZD0ic3ZnMzExODM2IiBpbmtzY2FwZTp2ZXJzaW9uPSIwLjkyLjMgKDI0MDU1NDYsIDIwMTgtMDMtMTEpIiBzb2RpcG9kaTpkb2NuYW1lPSJkZXZlbG9wZXJfNS5zdmciIHg9IjBweCIgeT0iMHB4IiB2aWV3Qm94PSIwIDAgMTkuMjkgNDguMDciIHN0eWxlPSJlbmFibGUtYmFja2dyb3VuZDpuZXcgMCAwIDE5LjI5IDQ4LjA3OyIgeG1sOnNwYWNlPSJwcmVzZXJ2ZSI+JiN4YTs8c29kaXBvZGk6bmFtZWR2aWV3IGJvcmRlcmNvbG9yPSIjNjY2NjY2IiBib3JkZXJvcGFjaXR5PSIxIiBmaXQtbWFyZ2luLWJvdHRvbT0iMCIgZml0LW1hcmdpbi1sZWZ0PSIwIiBmaXQtbWFyZ2luLXJpZ2h0PSIwIiBmaXQtbWFyZ2luLXRvcD0iMCIgZ3JpZHRvbGVyYW5jZT0iMTAiIGd1aWRldG9sZXJhbmNlPSIxMCIgaWQ9Im5hbWVkdmlldzMxMTgzOCIgaW5rc2NhcGU6Y3VycmVudC1sYXllcj0ic3ZnMzExODM2IiBpbmtzY2FwZTpjeD0iMTIuODYzMjIyIiBpbmtzY2FwZTpjeT0iMzIuMDQ4MDkyIiBpbmtzY2FwZTpwYWdlb3BhY2l0eT0iMCIgaW5rc2NhcGU6cGFnZXNoYWRvdz0iMiIgaW5rc2NhcGU6d2luZG93LWhlaWdodD0iMTAxNyIgaW5rc2NhcGU6d2luZG93LW1heGltaXplZD0iMSIgaW5rc2NhcGU6d2luZG93LXdpZHRoPSIxOTIwIiBpbmtzY2FwZTp3aW5kb3cteD0iLTgiIGlua3NjYXBlOndpbmRvdy15PSItOCIgaW5rc2NhcGU6em9vbT0iMTMuNTI3NzczIiBvYmplY3R0b2xlcmFuY2U9IjEwIiBwYWdlY29sb3I9IiNmZmZmZmYiIHNob3dncmlkPSJmYWxzZSI+JiN4YTsJPC9zb2RpcG9kaTpuYW1lZHZpZXc+JiN4YTs8ZyBpZD0iZzMxMTgzNCIgdHJhbnNmb3JtPSJ0cmFuc2xhdGUoLTAuMDAxNzcxNzcsMC4wMDM0KSI+JiN4YTsJPHRpdGxlIGlkPSJ0aXRsZTMxMTYyOSI+UGFnZS0xPC90aXRsZT4mI3hhOwk8ZyBpZD0iZ3JvdXA3MDY1LTEiPiYjeGE7CQk8dGl0bGUgaWQ9InRpdGxlMzExNjMxIj5EZXZlbG9wZXIgIzU8L3RpdGxlPiYjeGE7CQk8ZyBpZD0ic2hhcGU3MDY2LTIiIHRyYW5zZm9ybT0idHJhbnNsYXRlKDExLjQ3MzcsLTEuMzYyMjQpIj4mI3hhOwkJCTx0aXRsZSBpZD0idGl0bGUzMTE2MzMiPlNoZWV0LjcwNjY8L3RpdGxlPiYjeGE7CQkJPHBhdGggaWQ9InBhdGgzMTE2MzUiIGlua3NjYXBlOmNvbm5lY3Rvci1jdXJ2YXR1cmU9IjAiIGQ9Ik0wLDQ3Ljk3bDIuMzEsMC4xbDAuMDItMi45MmgtMi4xTDAsNDcuOTd6Ii8+JiN4YTsJCTwvZz4mI3hhOwkJPGcgaWQ9InNoYXBlNzA2Ny00IiB0cmFuc2Zvcm09InRyYW5zbGF0ZSgxMC44OTA0KSI+JiN4YTsJCQk8dGl0bGUgaWQ9InRpdGxlMzExNjM4Ij5TaGVldC43MDY3PC90aXRsZT4mI3hhOwkJCTxwYXRoIGlkPSJwYXRoMzExNjQwIiBpbmtzY2FwZTpjb25uZWN0b3ItY3VydmF0dXJlPSIwIiBzdHlsZT0iZmlsbDojNUMyRDkxOyIgZD0iTTAsNDcuODZjMi4xNiwwLjExLDIuMTYsMC4xMSwyLjE2LDAuMTEgICAgIGMwLjEyLTAuMzMsMC4xMi0wLjMzLDAuMTItMC4zM2MwLjcxLDAuMTEsMi4xNiwwLjMzLDIuOTgsMC40M2MwLjU2LDAsMS4zNCwwLDEuNzktMC4yMWMwLDAsMC4xNC0wLjExLDAuMTQtMC4yMiAgICAgYzAtMC44Ni0zLjQyLTEuMzItNC4zMS0yLjNjLTAuMTIsMC0wLjEyLDAtMC4xMiwwQzIuNSw0NS41NiwyLjI4LDQ2LDEuNzMsNDZjLTAuNTYsMC0xLjAxLTAuNTUtMS4yNC0wLjY2ICAgICBDMC4xMiw0NS41NiwwLDQ3Ljc1LDAsNDcuODZ6Ii8+JiN4YTsJCTwvZz4mI3hhOwkJPGcgaWQ9InNoYXBlNzA2OC02IiB0cmFuc2Zvcm09InRyYW5zbGF0ZSgzLjExMjg1LC0wLjM4OTIxMykiPiYjeGE7CQkJPHRpdGxlIGlkPSJ0aXRsZTMxMTY0MyI+U2hlZXQuNzA2ODwvdGl0bGU+JiN4YTsJCQk8cGF0aCBpZD0icGF0aDMxMTY0NSIgaW5rc2NhcGU6Y29ubmVjdG9yLWN1cnZhdHVyZT0iMCIgc3R5bGU9ImZpbGw6IzVDMkQ5MTsiIGQ9Ik0xLjE1LDQ1LjM0YzAsMC40OCwwLDAuNDgsMCwwLjQ4ICAgICBDMCw0Ny4zNSwwLDQ3LjM1LDAsNDcuMzVjMCwwLjUxLDAsMC41MSwwLDAuNTFjMCwwLjExLDAuMTEsMC4yMSwwLjIyLDAuMjFjMi40NywwLDIuNDcsMCwyLjQ3LDBjMC4yNSwwLDAuNDItMC4yMSwwLjQyLTAuNDMgICAgIGMwLTEuNDksMC0xLjQ5LDAtMS40OWMwLTAuNDgsMC0wLjQ4LDAtMC40OGMwLTAuMzMsMC0wLjMzLDAtMC4zM0wxLjE1LDQ1LjM0eiIvPiYjeGE7CQk8L2c+JiN4YTsJCTxnIGlkPSJzaGFwZTcwNjktOCIgdHJhbnNmb3JtPSJ0cmFuc2xhdGUoNC4yNzk0OCwtMy4xMTM3KSI+JiN4YTsJCQk8dGl0bGUgaWQ9InRpdGxlMzExNjQ4Ij5TaGVldC43MDY5PC90aXRsZT4mI3hhOwkJCTxwYXRoIGlkPSJwYXRoMzExNjUwIiBpbmtzY2FwZTpjb25uZWN0b3ItY3VydmF0dXJlPSIwIiBzdHlsZT0iZmlsbDojMDA3OEQ3OyIgZD0iTTcuMyw0OC4wN2MtMC4xOC0xLjE3LDAuMjMtNi45NC0wLjAzLTExLjA4ICAgICBjLTAuMjYtNC4wNC0xLjI1LTUuNjktMS4yNS01LjY5cy0wLjMzLTAuMjItMC40MSwwLjFjLTAuMDMsMC4xNS0xLjg4LDUuMy0xLjg4LDUuM3MtMS4yMSw5LjM1LTEuNywxMS4zN2MtMi4wMywwLTIuMDMsMC0yLjAzLDAgICAgIGMwLjUyLTEyLjAxLDAuNTItMTIuMDEsMC41Mi0xMi4wMWMwLjg5LTguNjIsMC44OS04LjYyLDAuODktOC42MmM4LjM3LTMuMzEsOC4zNy0zLjMxLDguMzctMy4zMWMtMC4yMywxLjE4LDAuOTEsNy4yLDAuODgsMTIuNzUgICAgIGMtMC4wOCw0LjY5LTEuMTQsMTAuMzEtMS4xMSwxMS4xOUw3LjMsNDguMDd6Ii8+JiN4YTsJCTwvZz4mI3hhOwkJPGcgaWQ9InNoYXBlNzA3MC0xMCIgdHJhbnNmb3JtPSJ0cmFuc2xhdGUoMy44OTA2LC0yLjkxOTA5KSI+JiN4YTsJCQk8dGl0bGUgaWQ9InRpdGxlMzExNjUzIj5TaGVldC43MDcwPC90aXRsZT4mI3hhOwkJCTxwYXRoIGlkPSJwYXRoMzExNjU1IiBpbmtzY2FwZTpjb25uZWN0b3ItY3VydmF0dXJlPSIwIiBzdHlsZT0iZmlsbDojMDA3OEQ3OyIgZD0iTTIuNjEsNDguMDdjLTIuNjEsMC0yLjYxLDAtMi42MSwwICAgICBjMC41Ni0xMi4zNCwwLjU2LTEyLjM0LDAuNTYtMTIuMzRjMC44Ny04Ljc5LDAuODctOC43OSwwLjg3LTguNzljOS4wNS0zLjU5LDkuMDUtMy41OSw5LjA1LTMuNTljLTAuMTEsMC41Ni0wLjExLDAuNTYtMC4xMSwwLjU2ICAgICBjLTAuMDgsMC40OCwwLjA3LDEuOTQsMC4yNSwzLjYzYzAuMjksMi40NCwwLjY2LDUuODEsMC42Miw5LjAzYy0wLjA0LDMuMDgtMC41MSw2LjU2LTAuODQsOC44M2MtMC4xNCwxLjE3LTAuMjUsMi4wNS0wLjI1LDIuMzQgICAgIGMwLjAzLDAuMzMsMC4wMywwLjMzLDAuMDMsMC4zM2MtMi44MywwLTIuODMsMC0yLjgzLDBjLTAuMDctMC4yNi0wLjA3LTAuMjYtMC4wNy0wLjI2Yy0wLjA3LTAuNTQtMC4wNC0xLjkzLDAtMy43ICAgICBjMC4wNy0yLjI2LDAuMTEtNS4wOC0wLjA0LTcuNDNjLTAuMTgtMy4xOC0wLjg1LTQuODMtMS4wNy01LjM0Yy0wLjI5LDAuODEtMS41NCw0LjI5LTEuODMsNS4xMmMtMC4wNywwLjctMS4yMiw5LjM4LTEuNjksMTEuMzUgICAgIEwyLjYxLDQ4LjA3eiBNMC42Nyw0Ny40NWMxLjQzLDAsMS40MywwLDEuNDMsMGMwLjUxLTIuNDEsMS42Mi0xMS4wMiwxLjY2LTExLjFjMC0wLjA3LDAtMC4wNywwLTAuMDdjMC43Mi0yLDEuODMtNS4xMiwxLjg3LTUuMjYgICAgIGMwLjA3LTAuMjIsMC4yMi0wLjMsMC4yOS0wLjMzYzAuMjktMC4xMSwwLjU1LDAuMDMsMC41OSwwLjA3YzAuMDgsMC4wNCwwLjA4LDAuMDQsMC4wOCwwLjA0YzAuMDMsMC4wNywwLjAzLDAuMDcsMC4wMywwLjA3ICAgICBjMC4wNCwwLjA3LDAuOTksMS43NSwxLjI0LDUuNzhjMC4xNSwyLjM4LDAuMDgsNS4yLDAuMDQsNy40NmMtMC4wNCwxLjQ0LTAuMDcsMi43Mi0wLjA0LDMuMzRjMS42OSwwLDEuNjksMCwxLjY5LDAgICAgIGMwLTAuNDQsMC4xMS0xLjEzLDAuMjctMi4xMmMwLjI5LTIuMjcsMC43Ni01LjcyLDAuOC04Ljc2YzAuMDQtMy4xOC0wLjMzLTYuNTItMC41OC04Ljk2Yy0wLjE4LTEuNTEtMC4yOS0yLjYtMC4yOS0zLjMgICAgIGMtNy43MiwzLjA4LTcuNzIsMy4wOC03LjcyLDMuMDhjLTAuODUsOC4zOC0wLjg1LDguMzgtMC44NSw4LjM4TDAuNjcsNDcuNDV6Ii8+JiN4YTsJCTwvZz4mI3hhOwkJPGcgaWQ9InNoYXBlNzA3MS0xMiIgdHJhbnNmb3JtPSJ0cmFuc2xhdGUoNC44NjI3OSwtMjMuNzQyKSI+JiN4YTsJCQk8dGl0bGUgaWQ9InRpdGxlMzExNjU4Ij5TaGVldC43MDcxPC90aXRsZT4mI3hhOwkJCTxwYXRoIGlkPSJwYXRoMzExNjYwIiBpbmtzY2FwZTpjb25uZWN0b3ItY3VydmF0dXJlPSIwIiBzdHlsZT0iZmlsbDojRTZFN0U4OyIgZD0iTTcuNTgsNDguMDdIMC4zNmwtMC4xMy04Ljg4TDAsMzQuNTRsNi44OS0wLjQ4ICAgICBMNy41OCw0OC4wN3oiLz4mI3hhOwkJPC9nPiYjeGE7CQk8ZyBpZD0ic2hhcGU3MDcyLTE0IiB0cmFuc2Zvcm09InRyYW5zbGF0ZSg0Ljg2Mjc5LC0zNS44MDc2KSI+JiN4YTsJCQk8dGl0bGUgaWQ9InRpdGxlMzExNjYzIj5TaGVldC43MDcyPC90aXRsZT4mI3hhOwkJCTxwYXRoIGlkPSJwYXRoMzExNjY1IiBpbmtzY2FwZTpjb25uZWN0b3ItY3VydmF0dXJlPSIwIiBzdHlsZT0iZmlsbDojRTZFN0U4OyIgZD0iTTAuNjYsNDguMDdMMCw0NS4ybDQuNjQtMS4wMmwwLjYxLDIuODQgICAgIEwwLjY2LDQ4LjA3eiIvPiYjeGE7CQk8L2c+JiN4YTsJCTxnIGlkPSJzaGFwZTcwNzMtMTYiIHRyYW5zZm9ybT0idHJhbnNsYXRlKDkuOTE4MTgsLTIzLjc0MikiPiYjeGE7CQkJPHRpdGxlIGlkPSJ0aXRsZTMxMTY2OCI+U2hlZXQuNzA3MzwvdGl0bGU+JiN4YTsJCQk8cGF0aCBpZD0icGF0aDMxMTY3MCIgaW5rc2NhcGU6Y29ubmVjdG9yLWN1cnZhdHVyZT0iMCIgc3R5bGU9ImZpbGw6I0U2RTdFODsiIGQ9Ik0wLDQ4LjA3aDQuNjdsMC4xNy04Ljg0bDAuMjItNC42M0wwLDM0LjI1ICAgICBWNDguMDd6Ii8+JiN4YTsJCTwvZz4mI3hhOwkJPGcgaWQ9InNoYXBlNzA3NC0xOCIgdHJhbnNmb3JtPSJ0cmFuc2xhdGUoOS41MjkzMSwtMzUuODA3NikiPiYjeGE7CQkJPHRpdGxlIGlkPSJ0aXRsZTMxMTY3MyI+U2hlZXQuNzA3NDwvdGl0bGU+JiN4YTsJCQk8cGF0aCBpZD0icGF0aDMxMTY3NSIgaW5rc2NhcGU6Y29ubmVjdG9yLWN1cnZhdHVyZT0iMCIgc3R5bGU9ImZpbGw6I0U2RTdFODsiIGQ9Ik01LjA2LDQ4LjA3bC01LjA2LTFsMC42LTIuODlsNS4wNCwxLjA0ICAgICBMNS4wNiw0OC4wN3oiLz4mI3hhOwkJPC9nPiYjeGE7CQk8ZyBpZD0ic2hhcGU3MDc1LTIwIiB0cmFuc2Zvcm09InRyYW5zbGF0ZSg3LjE5NjA1LC0zMi4zMDQ2KSI+JiN4YTsJCQk8dGl0bGUgaWQ9InRpdGxlMzExNjc4Ij5TaGVldC43MDc1PC90aXRsZT4mI3hhOwkJCTxwYXRoIGlkPSJwYXRoMzExNjgwIiBpbmtzY2FwZTpjb25uZWN0b3ItY3VydmF0dXJlPSIwIiBzdHlsZT0iZmlsbDojMDBCMjk0OyIgZD0iTTQuNDEsNDYuMDJjLTAuMTgsMC0wLjM2LDAuMDQtMC41MiwwLjE1ICAgICBjMC0wLjExLTAuMDQtMC4xOC0wLjA3LTAuMjZjLTAuMDgtMC4xOC0wLjA4LTAuMTgtMC4wOC0wLjE4Yy0wLjAzLTAuMTgtMC4xMS0wLjMzLTAuMTEtMC40YzAuMDgtMC4xNCwwLjA4LTAuMTQsMC4wOC0wLjE0ICAgICBjMC0wLjA0LDAtMC4wNC0wLjA0LTAuMDhjLTAuMTEtMC4xMi0wLjExLTAuMTItMC4xMS0wLjEyYzAtMC4wNC0wLjA0LTAuMDQtMC4wNC0wLjA0Yy0wLjQxLDAtMC40MSwwLTAuNDEsMCAgICAgYy0wLjA0LDAtMC4wNywwLjA0LTAuMDcsMC4wOGMwLDAuMDUsMC4wMywwLjA4LDAuMDcsMC4wOGMwLjM4LDAsMC4zOCwwLDAuMzgsMGMwLjA3LDAuMDgsMC4wNywwLjA4LDAuMDcsMC4wOCAgICAgYy0wLjA3LDAuMTQtMC4wNywwLjE0LTAuMDcsMC4xNHMwLDAsMCwwLjA0YzAuMDMsMCwwLjA3LDAuMTQsMC4xNCwwLjMzYy0xLjUyLDAtMS41MiwwLTEuNTIsMGMtMC4wMy0wLjExLTAuMDMtMC4xMS0wLjAzLTAuMTEgICAgIGMwLjE0LTAuMDQsMC4zNC0wLjExLDAuNDEtMC4yMmMtMC45MywwLTAuOTMsMC0wLjkzLDBjMCwwLjE0LDAuMTUsMC4yNSwwLjM0LDAuMjVjMC4wMywwLDAuMDMsMCwwLjA3LDBsMCwwICAgICBjMC4wNCwwLjE1LDAuMDQsMC4xNSwwLjA0LDAuMTVjLTAuMzcsMC40NC0wLjM3LDAuNDQtMC4zNywwLjQ0Yy0wLjE5LTAuMTEtMC4zOC0wLjE5LTAuNTktMC4xOUMwLjQ5LDQ2LjAyLDAsNDYuNDYsMCw0Ny4wNSAgICAgYzAsMC41NCwwLjQ5LDEuMDIsMS4wNSwxLjAyYzAuNDcsMCwwLjg4LTAuMzMsMC45OS0wLjc3YzAuMjIsMC4wNCwwLjIyLDAuMDQsMC4yMiwwLjA0YzAsMC4wNywwLjA3LDAuMTgsMC4xNiwwLjIyICAgICBjLTAuMDQsMC4yMi0wLjA0LDAuMjItMC4wNCwwLjIyYy0wLjEyLDAtMC4xMiwwLTAuMTIsMGMtMC4wNCwwLTAuMDcsMC0wLjA3LDAuMDNjMCwwLjA0LDAuMDMsMC4wOCwwLjA3LDAuMDhjMC4zLDAsMC4zLDAsMC4zLDAgICAgIGMwLjA0LDAsMC4wNC0wLjA0LDAuMDQtMC4wOGMwLTAuMDMsMC0wLjAzLTAuMDQtMC4wM2MtMC4wNywwLTAuMDcsMC0wLjA3LDBjMC4wNC0wLjIyLDAuMDQtMC4yMiwwLjA0LTAuMjIgICAgIGMwLjE0LDAsMC4yNS0wLjExLDAuMjUtMC4yNmMwLTAuMDMtMC4wMy0wLjA3LTAuMDctMC4xMWMxLjAzLTEuMTMsMS4wMy0xLjEzLDEuMDMtMS4xM2MwLjA0LDAuMDQsMC4wNCwwLjExLDAuMDgsMC4xNSAgICAgYy0wLjI2LDAuMjItMC40NCwwLjQ3LTAuNDQsMC44NGMwLDAuNTQsMC40NCwxLjAyLDEuMDMsMS4wMmMwLjYsMCwxLjAzLTAuNDgsMS4wMy0xLjAyQzUuNDQsNDYuNDYsNS4wMSw0Ni4wMiw0LjQxLDQ2LjAyeiAgICAgIE0xLjA1LDQ3LjkyYy0wLjQ5LDAtMC44OS0wLjQtMC44OS0wLjg3YzAtMC40OCwwLjQtMC44OCwwLjg5LTAuODhjMC4xOCwwLDAuMzIsMC4wNywwLjQ3LDAuMTVjLTAuNDcsMC42Mi0wLjQ3LDAuNjItMC40NywwLjYyICAgICBsMCwwYy0wLjA0LDAtMC4xMSwwLjAzLTAuMTEsMC4xMWgwLjAzYy0wLjAzLDAuMDMtMC4wMywwLjAzLTAuMDMsMC4wM2MwLjA3LDAsMC4wNywwLDAuMDcsMGMwLDAuMDQsMCwwLjA4LDAuMDQsMC4wOCAgICAgYzAuMDMsMCwwLjAzLTAuMDQsMC4wMy0wLjA0YzAuODIsMC4xNSwwLjgyLDAuMTUsMC44MiwwLjE1QzEuNzksNDcuNjMsMS40NSw0Ny45MiwxLjA1LDQ3LjkyeiBNMS45Myw0Ny4wNWMwLDAuMDMsMCwwLjA3LDAsMC4xMSAgICAgYy0wLjc4LTAuMTUtMC43OC0wLjE1LTAuNzgtMC4xNWMwLjQ5LTAuNjIsMC40OS0wLjYyLDAuNDktMC42MkMxLjgyLDQ2LjU3LDEuOTMsNDYuNzksMS45Myw0Ny4wNXogTTEuNzUsNDYuMjggICAgIGMwLjI5LTAuNCwwLjI5LTAuNCwwLjI5LTAuNGMwLjM4LDEuMjQsMC4zOCwxLjI0LDAuMzgsMS4yNGMtMC4wOSwwLjA0LTAuMDksMC4wNC0wLjEyLDAuMTFjLTAuMjItMC4wNy0wLjIyLTAuMDctMC4yMi0wLjA3ICAgICBjMC0wLjA0LDAtMC4wOCwwLTAuMTFDMi4wOCw0Ni43MiwxLjk3LDQ2LjQ2LDEuNzUsNDYuMjh6IE0yLjY3LDQ3LjA1YzAuMDgtMC4yMiwwLjA4LTAuMjIsMC4wOC0wLjIyYzAuMDcsMCwwLjA3LDAsMC4wNywwICAgICBjMC4wNCwwLDAuMDctMC4wNCwwLjA3LTAuMDRjMC0wLjA0LTAuMDMtMC4wNy0wLjA3LTAuMDdjLTAuMjYsMC0wLjI2LDAtMC4yNiwwYy0wLjAzLDAtMC4wNywwLjAzLTAuMDcsMC4wNyAgICAgYzAsMCwwLjA0LDAuMDQsMC4wNywwLjA0YzAuMDQsMCwwLjA0LDAsMC4wNCwwYy0wLjA0LDAuMjUtMC4wNCwwLjI1LTAuMDQsMC4yNWMtMC4wMywwLTAuMDMsMC0wLjAzLDBsMCwwICAgICBjLTAuMzgtMS4yNy0wLjM4LTEuMjctMC4zOC0xLjI3YzEuNTIsMCwxLjUyLDAsMS41MiwwYzAsMC4wMywwLDAuMDcsMC4wNCwwLjFMMi42Nyw0Ny4wNXogTTQuNDEsNDcuOTIgICAgIGMtMC40NywwLTAuODktMC40LTAuODktMC44N2MwLTAuMywwLjE1LTAuNTEsMC4zMy0wLjY2YzAuMDQsMC4wNywwLjA5LDAuMTUsMC4wOSwwLjIyYzAuMTEsMC4xOCwwLjI5LDAuMzMsMC4zNiwwLjQ0bDAsMCAgICAgYzAsMC4wMywwLjA0LDAuMTEsMC4xMSwwLjExczAuMTEtMC4wOCwwLjExLTAuMTFjMC0wLjA4LTAuMDQtMC4xMS0wLjExLTAuMTFsMCwwYy0wLjExLTAuMDgtMC4yOS0wLjIyLTAuMzYtMC40ICAgICBjMC0wLjA0LTAuMDQtMC4xMS0wLjA4LTAuMjJjMC4xMS0wLjA4LDAuMjYtMC4xNSwwLjQ0LTAuMTVjMC40OSwwLDAuODksMC40LDAuODksMC44OEM1LjMsNDcuNTIsNC45LDQ3LjkyLDQuNDEsNDcuOTJ6Ii8+JiN4YTsJCTwvZz4mI3hhOwkJPGcgaWQ9InNoYXBlNzA3Ni0yMiIgdHJhbnNmb3JtPSJ0cmFuc2xhdGUoOS45MTgxOCwtMzguMzM3NCkiPiYjeGE7CQkJPHRpdGxlIGlkPSJ0aXRsZTMxMTY4MyI+U2hlZXQuNzA3NjwvdGl0bGU+JiN4YTsJCQk8cGF0aCBpZD0icGF0aDMxMTY4NSIgaW5rc2NhcGU6Y29ubmVjdG9yLWN1cnZhdHVyZT0iMCIgc3R5bGU9ImZpbGw6I0YyN0FCNDsiIGQ9Ik0wLjE5LDQ3Ljg3YzAsMC4xNC0wLjA5LDAuMi0wLjE0LDAuMiAgICAgYzAsMCwwLDAtMC4wNS0wLjA2QzAuMTksNDcuODcsMC4xOSw0Ny44NywwLjE5LDQ3Ljg3TDAuMTksNDcuODd6Ii8+JiN4YTsJCTwvZz4mI3hhOwkJPGcgaWQ9InNoYXBlNzA3Ny0yNCIgdHJhbnNmb3JtPSJ0cmFuc2xhdGUoOC4xNjgyNCwtMzcuNzUzNikiPiYjeGE7CQkJPHRpdGxlIGlkPSJ0aXRsZTMxMTY4OCI+U2hlZXQuNzA3NzwvdGl0bGU+JiN4YTsJCQk8cGF0aCBpZD0icGF0aDMxMTY5MCIgaW5rc2NhcGU6Y29ubmVjdG9yLWN1cnZhdHVyZT0iMCIgc3R5bGU9ImZpbGw6I0NFOUM1RTsiIGQ9Ik0xLjg1LDQ4LjA3QzAuODQsNDguMDcsMCw0Ny4zOSwwLDQ2LjMzICAgICBjMC0xLjM4LDAtMS4zOCwwLTEuMzhjMy42OSwwLDMuNjksMCwzLjY5LDBjMCwxLjM4LDAsMS4zOCwwLDEuMzhDMy42OSw0Ny4zOSwyLjg3LDQ4LjA3LDEuODUsNDguMDd6Ii8+JiN4YTsJCTwvZz4mI3hhOwkJPGcgaWQ9InNoYXBlNzA3OC0yNiIgdHJhbnNmb3JtPSJ0cmFuc2xhdGUoNy4wMDE2MSwtMzkuNjk5NykiPiYjeGE7CQkJPHRpdGxlIGlkPSJ0aXRsZTMxMTY5MyI+U2hlZXQuNzA3ODwvdGl0bGU+JiN4YTsJCQk8cGF0aCBpZD0icGF0aDMxMTY5NSIgaW5rc2NhcGU6Y29ubmVjdG9yLWN1cnZhdHVyZT0iMCIgc3R5bGU9ImZpbGw6I0NFOUM1RTsiIGQ9Ik01LjgzLDQ0LjE0YzAsMi4zMy0xLjI2LDMuOTMtMi45MywzLjkzICAgICBjLTEuNjYsMC0yLjktMS42LTIuOS0zLjkzYzAtMi4zNSwxLjI0LTQuMjUsMi45LTQuMjVDNS4wMSwzOS44OSw1LjgzLDQxLjc5LDUuODMsNDQuMTR6Ii8+JiN4YTsJCTwvZz4mI3hhOwkJPGcgaWQ9InNoYXBlNzA3OS0yOCIgdHJhbnNmb3JtPSJ0cmFuc2xhdGUoNi42MTI3MywtNDIuNDI0MikiPiYjeGE7CQkJPHRpdGxlIGlkPSJ0aXRsZTMxMTY5OCI+U2hlZXQuNzA3OTwvdGl0bGU+JiN4YTsJCQk8cGF0aCBpZD0icGF0aDMxMTcwMCIgaW5rc2NhcGU6Y29ubmVjdG9yLWN1cnZhdHVyZT0iMCIgc3R5bGU9ImZpbGw6I0NFOUM1RTsiIGQ9Ik0wLjU4LDQ2LjMyYy0wLjMyLDAtMC4zMiwwLTAuMzIsMCAgICAgQzAuMSw0Ni4zMiwwLDQ2LjQ2LDAsNDYuNjNjMCwxLjEzLDAsMS4xMywwLDEuMTNjMCwwLjE3LDAuMSwwLjMxLDAuMjYsMC4zMWMwLjIsMCwwLjIsMCwwLjIsMEwwLjU4LDQ2LjMyeiIvPiYjeGE7CQk8L2c+JiN4YTsJCTxnIGlkPSJzaGFwZTcwODAtMzAiIHRyYW5zZm9ybT0idHJhbnNsYXRlKDEyLjY0MDMsLTQyLjQyNDIpIj4mI3hhOwkJCTx0aXRsZSBpZD0idGl0bGUzMTE3MDMiPlNoZWV0LjcwODA8L3RpdGxlPiYjeGE7CQkJPHBhdGggaWQ9InBhdGgzMTE3MDUiIGlua3NjYXBlOmNvbm5lY3Rvci1jdXJ2YXR1cmU9IjAiIHN0eWxlPSJmaWxsOiNDRTlDNUU7IiBkPSJNMCw0Ni4zMmMwLjQ2LDAsMC40NiwwLDAuNDYsMCAgICAgYzAuMiwwLDAuMzIsMC4xNCwwLjMyLDAuMzFjMCwxLjEzLDAsMS4xMywwLDEuMTNjMCwwLjE3LTAuMTIsMC4zMS0wLjMyLDAuMzFjLTAuMjksMC0wLjI5LDAtMC4yOSwwTDAsNDYuMzJ6Ii8+JiN4YTsJCTwvZz4mI3hhOwkJPGcgaWQ9InNoYXBlNzA4MS0zMiIgdHJhbnNmb3JtPSJ0cmFuc2xhdGUoOC41NTcxMSwtNDMuNTkxOCkiPiYjeGE7CQkJPHRpdGxlIGlkPSJ0aXRsZTMxMTcwOCI+U2hlZXQuNzA4MTwvdGl0bGU+JiN4YTsJCQk8cGF0aCBpZD0icGF0aDMxMTcxMCIgaW5rc2NhcGU6Y29ubmVjdG9yLWN1cnZhdHVyZT0iMCIgc3R5bGU9ImZpbGw6IzIzMUYyMDsiIGQ9Ik0wLjE5LDQ4LjA3YzAuMSwwLDAuMi0wLjA5LDAuMi0wLjIxICAgICBjMC0wLjA4LTAuMS0wLjE4LTAuMi0wLjE4QzAuMDcsNDcuNjgsMCw0Ny43OCwwLDQ3LjlDMCw0Ny45OCwwLjEsNDguMDcsMC4xOSw0OC4wN3oiLz4mI3hhOwkJPC9nPiYjeGE7CQk8ZyBpZD0ic2hhcGU3MDgyLTM0IiB0cmFuc2Zvcm09InRyYW5zbGF0ZSgxMS4wODQ4LC00My4zOTcyKSI+JiN4YTsJCQk8dGl0bGUgaWQ9InRpdGxlMzExNzEzIj5TaGVldC43MDgyPC90aXRsZT4mI3hhOwkJCTxwYXRoIGlkPSJwYXRoMzExNzE1IiBpbmtzY2FwZTpjb25uZWN0b3ItY3VydmF0dXJlPSIwIiBzdHlsZT0iZmlsbDojMjMxRjIwOyIgZD0iTTAuMTksNDguMDdjMC4xLDAsMC4yLTAuMTQsMC4yLTAuMzEgICAgIGMwLTAuMTMtMC4xLTAuMjgtMC4yLTAuMjhDMC4xLDQ3LjQ4LDAsNDcuNjMsMCw0Ny44QzAsNDcuOTMsMC4xLDQ4LjA3LDAuMTksNDguMDd6Ii8+JiN4YTsJCTwvZz4mI3hhOwkJPGcgaWQ9InNoYXBlNzA4My0zNiIgdHJhbnNmb3JtPSJ0cmFuc2xhdGUoOC4xNjgyNCwtMzkuNTA1MSkiPiYjeGE7CQkJPHRpdGxlIGlkPSJ0aXRsZTMxMTcxOCI+U2hlZXQuNzA4MzwvdGl0bGU+JiN4YTsJCQk8cGF0aCBpZD0icGF0aDMxMTcyMCIgaW5rc2NhcGU6Y29ubmVjdG9yLWN1cnZhdHVyZT0iMCIgc3R5bGU9ImZpbGw6I0NFOUM1RTsiIGQ9Ik0wLDQ2LjcxYzMuNSwwLDMuNSwwLDMuNSwwICAgICBjLTAuNDQsMC44My0xLjAzLDEuMzYtMS43NSwxLjM2QzEuMDUsNDguMDcsMC40NSw0Ny41NCwwLDQ2LjcxeiIvPiYjeGE7CQk8L2c+JiN4YTsJCTxnIGlkPSJzaGFwZTcwODQtMzgiIHRyYW5zZm9ybT0idHJhbnNsYXRlKDguMTY4MjQsLTM5LjMxMDUpIj4mI3hhOwkJCTx0aXRsZSBpZD0idGl0bGUzMTE3MjMiPlNoZWV0LjcwODQ8L3RpdGxlPiYjeGE7CQkJPHBhdGggaWQ9InBhdGgzMTE3MjUiIGlua3NjYXBlOmNvbm5lY3Rvci1jdXJ2YXR1cmU9IjAiIHN0eWxlPSJmaWxsOiNCQThENTc7IiBkPSJNMy42OSw0Ni45YzAsMC4yOSwwLDAuMjksMCwwLjI5ICAgICBjMCwwLjI4LTEuMTksMC44OC0xLjg0LDAuODhDMS4yNCw0OC4wNywwLDQ3LjYyLDAsNDcuMTljMC0wLjI5LDAtMC4yOSwwLTAuMjljMC4yNiwwLjI2LDAuNTUsMC40NiwwLjg3LDAuNjEgICAgIGMwLjMsMC4yNCwwLjYyLDAuMzUsMC45OCwwLjM1czAuNjktMC4xMSwwLjk4LTAuMzVDMy4xNiw0Ny4zNiwzLjQ1LDQ3LjE2LDMuNjksNDYuOXoiLz4mI3hhOwkJPC9nPiYjeGE7CQk8ZyBpZD0ic2hhcGU3MDg1LTQwIiB0cmFuc2Zvcm09InRyYW5zbGF0ZSg4Ljc1MTU1LC00MS4wNjE5KSI+JiN4YTsJCQk8dGl0bGUgaWQ9InRpdGxlMzExNzI4Ij5TaGVldC43MDg1PC90aXRsZT4mI3hhOwkJCTxwYXRoIGlkPSJwYXRoMzExNzMwIiBpbmtzY2FwZTpjb25uZWN0b3ItY3VydmF0dXJlPSIwIiBzdHlsZT0iZmlsbDojRkZGRkZGOyIgZD0iTTEuMTcsNDguMDdjMC41NCwwLDAuOC0wLjEyLDEuMTYtMC4yICAgICBjLTAuMTgsMC4wNC0wLjYyLDAuMDgtMS4xNiwwLjA4Yy0wLjU5LDAtMC45OS0wLjA0LTEuMTctMC4wOEMwLjM2LDQ3Ljk1LDAuNjIsNDguMDcsMS4xNyw0OC4wN3oiLz4mI3hhOwkJPC9nPiYjeGE7CQk8ZyBpZD0ic2hhcGU3MDg2LTQyIiB0cmFuc2Zvcm09InRyYW5zbGF0ZSg4Ljc1MTU1LC00MC44NjczKSI+JiN4YTsJCQk8dGl0bGUgaWQ9InRpdGxlMzExNzMzIj5TaGVldC43MDg2PC90aXRsZT4mI3hhOwkJCTxwYXRoIGlkPSJwYXRoMzExNzM1IiBpbmtzY2FwZTpjb25uZWN0b3ItY3VydmF0dXJlPSIwIiBzdHlsZT0iZmlsbDojQkIxNDFBOyIgZD0iTTEuMjksNDguMDdjLTAuMzgsMC0wLjYxLTAuMS0wLjg2LTAuMTUgICAgIGMtMC4wOS0wLjA1LTAuMi0wLjEtMC4zMS0wLjE0Yy0wLjAzLDAtMC4wMywwLTAuMDcsMEwwLDQ3LjczYzAuMDUtMC4wNSwwLjA1LTAuMDUsMC4wOS0wLjA1YzAsMCwwLjAzLDAsMC4wNywwICAgICBjMC4xOCwwLjA1LDAuNjEsMC4xLDEuMTMsMC4xYzAuNDgsMCwwLjkxLTAuMDUsMS4xMy0wLjFjMC4wMywwLDAuMDMsMCwwLjA3LDBzMC4wNCwwLDAuMDQsMC4wNWMwLDAsMCwwLjA1LTAuMDQsMC4wNSAgICAgYzAsMC0wLjA0LDAtMC4wNywwYy0wLjA3LDAuMDQtMC4xOCwwLjA5LTAuMzEsMC4xNEMxLjksNDcuOTcsMS42Myw0OC4wNywxLjI5LDQ4LjA3eiBNMC42MSw0Ny44N2MwLjE5LDAuMDUsMC40MSwwLjEsMC42OCwwLjEgICAgIHMwLjQ4LTAuMDUsMC42OC0wLjFjLTAuMjMsMC0wLjQ1LDAtMC42OCwwQzEuMDIsNDcuODcsMC44LDQ3Ljg3LDAuNjEsNDcuODd6Ii8+JiN4YTsJCTwvZz4mI3hhOwkJPGcgaWQ9InNoYXBlNzA4Ny00NCIgdHJhbnNmb3JtPSJ0cmFuc2xhdGUoOS4zMzQ4NywtNDEuODQwNCkiPiYjeGE7CQkJPHRpdGxlIGlkPSJ0aXRsZTMxMTczOCI+U2hlZXQuNzA4NzwvdGl0bGU+JiN4YTsJCQk8cGF0aCBpZD0icGF0aDMxMTc0MCIgaW5rc2NhcGU6Y29ubmVjdG9yLWN1cnZhdHVyZT0iMCIgc3R5bGU9ImZpbGw6I0JBOEQ1NzsiIGQ9Ik0xLjE3LDQ3LjQ4YzAsMC4xNS0wLjEsMC4zLTAuMjEsMC4yNSAgICAgYy0wLjA0LDAtMC4wNywwLjA5LTAuMTUsMC4xNGMtMC4wNiwwLjEtMC4xMywwLjItMC4yNCwwLjJjLTAuMDcsMC0wLjE4LTAuMS0wLjI0LTAuMmMtMC4wNy0wLjA1LTAuMTEtMC4xNC0wLjExLTAuMTQgICAgIEMwLjA3LDQ3Ljc4LDAsNDcuNjMsMCw0Ny40OGwwLDBDMS4xNyw0Ny40OCwxLjE3LDQ3LjQ4LDEuMTcsNDcuNDhMMS4xNyw0Ny40OHoiLz4mI3hhOwkJPC9nPiYjeGE7CQk8ZyBpZD0ic2hhcGU3MDg4LTQ2IiB0cmFuc2Zvcm09InRyYW5zbGF0ZSg3LjAwMTYxLC00Mi44MTM0KSI+JiN4YTsJCQk8dGl0bGUgaWQ9InRpdGxlMzExNzQzIj5TaGVldC43MDg4PC90aXRsZT4mI3hhOwkJCTxwYXRoIGlkPSJwYXRoMzExNzQ1IiBpbmtzY2FwZTpjb25uZWN0b3ItY3VydmF0dXJlPSIwIiBzdHlsZT0iZmlsbDojRkZCOTAwOyIgZD0iTTYuMDMsNDUuNTRjMCwyLjUzLDAsMi41MywwLDIuNTMgICAgIGMtMC4yNiwwLTAuMjYsMC0wLjI2LDBjLTAuMTQtMy4wNC0wLjE0LTMuMDQtMC4xNC0zLjA0QzQuOCw0NS4xNyw0LjgsNDUuMTcsNC44LDQ1LjE3Yy0xLjE5LDAuMTUtMi4zOCwwLjE1LTMuNTYsMCAgICAgYy0wLjgzLTAuMTQtMC44My0wLjE0LTAuODMtMC4xNGMtMC4xOCwzLTAuMTgsMy0wLjE4LDNjLTAuMjMsMC0wLjIzLDAtMC4yMywwYzAtMi40OSwwLTIuNDksMC0yLjQ5YzAtMS41MSwxLjA1LTIuNzMsMi4zMS0yLjczICAgICBjMS4zOCwwLDEuMzgsMCwxLjM4LDBDNC45OSw0Mi44MSw2LjAzLDQ0LjAzLDYuMDMsNDUuNTR6Ii8+JiN4YTsJCTwvZz4mI3hhOwkJPGcgaWQ9InNoYXBlNzA4OS00OCIgdHJhbnNmb3JtPSJ0cmFuc2xhdGUoMTAuODkwNCwtNDQuMTc1NikiPiYjeGE7CQkJPHRpdGxlIGlkPSJ0aXRsZTMxMTc0OCI+U2hlZXQuNzA4OTwvdGl0bGU+JiN4YTsJCQk8cGF0aCBpZD0icGF0aDMxMTc1MCIgaW5rc2NhcGU6Y29ubmVjdG9yLWN1cnZhdHVyZT0iMCIgc3R5bGU9ImZpbGw6I0ZGQjkwMDsiIGQ9Ik0wLjk3LDQ4LjA3YzAsMC0wLjA2LTAuMDMtMC4xNi0wLjEgICAgIGMtMC4wMywwLTAuMDYtMC4wMi0wLjEzLTAuMDZjLTAuMDItMC4wNC0wLjA2LTAuMDQtMC4wNi0wLjA0cy0wLjA0LTAuMDItMC4wNi0wLjAyYzAsMCwwLDAtMC4wNCwwYy0wLjEzLTAuMDQtMC4yNSwwLTAuMzUsMCAgICAgYy0wLjA0LDAtMC4wNywwLTAuMSwwcy0wLjA3LDAtMC4wNywwbDAsMGMwLTAuMDQsMC0wLjA0LDAtMC4wNHMwLjA3LTAuMDMsMC4xNy0wLjA2YzAuMS0wLjAzLDAuMjItMC4wNywwLjM5LTAuMDMgICAgIGMwLDAsMC4wMiwwLDAuMDYsMGMwLDAsMCwwLDAuMDQsMC4wM2MwLjAyLDAsMC4wNiwwLjAzLDAuMDksMC4wM2MwLjA2LDAuMDcsMC4xLDAuMDksMC4xMiwwLjEzYzAuMDQsMC4wNCwwLjA4LDAuMSwwLjEsMC4xICAgICBDMC45Nyw0OC4wNCwwLjk3LDQ4LjA3LDAuOTcsNDguMDdMMC45Nyw0OC4wN0MwLjk3LDQ4LjA3LDAuOTcsNDguMDcsMC45Nyw0OC4wN3oiLz4mI3hhOwkJPC9nPiYjeGE7CQk8ZyBpZD0ic2hhcGU3MDkwLTUwIiB0cmFuc2Zvcm09InRyYW5zbGF0ZSg4LjE2ODI0LC00NC4xODE3KSI+JiN4YTsJCQk8dGl0bGUgaWQ9InRpdGxlMzExNzUzIj5TaGVldC43MDkwPC90aXRsZT4mI3hhOwkJCTxwYXRoIGlkPSJwYXRoMzExNzU1IiBpbmtzY2FwZTpjb25uZWN0b3ItY3VydmF0dXJlPSIwIiBzdHlsZT0iZmlsbDojRkZCOTAwOyIgZD0iTTAuOTUsNDcuODVjMCwwLTAuMDYsMC0wLjE2LTAuMDMgICAgIGMtMC4wNCwwLTAuMSwwLTAuMTYsMGMtMC4wMiwwLTAuMDYsMC0wLjEsMEgwLjUxSDAuNDdjLTAuMTIsMC4wMy0wLjIxLDAuMS0wLjMxLDAuMTZjLTAuMDMsMC4wMy0wLjA2LDAuMDMtMC4wOSwwLjA3ICAgICBjLTAuMDMsMC0wLjAzLDAtMC4wMywwYzAsMC4wMi0wLjA0LDAuMDItMC4wNCwwbDAsMGMwLDAsMC4wNC0wLjA3LDAuMS0wLjEzYzAuMDktMC4xLDAuMTktMC4xNiwwLjM1LTAuMjRoMC4wMiAgICAgYzAuMDQsMCwwLjA0LDAsMC4wNiwwYzAuMDQsMCwwLjEsMCwwLjE0LDBjMC4wNiwwLDAuMDgsMC4wNCwwLjE2LDAuMDRjMC4wMiwwLjA0LDAuMDgsMC4wNiwwLjA4LDAuMDYgICAgIGMwLjA0LDAuMDQsMC4wNiwwLjA0LDAuMDYsMC4wNHMwLDAsMCwwLjAzQzAuOTcsNDcuODUsMC45NSw0Ny44NSwwLjk1LDQ3Ljg1eiIvPiYjeGE7CQk8L2c+JiN4YTsJCTxnIGlkPSJzaGFwZTcwOTEtNTIiIHRyYW5zZm9ybT0idHJhbnNsYXRlKDkuMzM0ODcsLTQyLjQyNDIpIj4mI3hhOwkJCTx0aXRsZSBpZD0idGl0bGUzMTE3NTgiPlNoZWV0LjcwOTE8L3RpdGxlPiYjeGE7CQkJPHBhdGggaWQ9InBhdGgzMTE3NjAiIGlua3NjYXBlOmNvbm5lY3Rvci1jdXJ2YXR1cmU9IjAiIHN0eWxlPSJmaWxsOiNEOUIwN0Y7IiBkPSJNMC43OCw0Ni4zMmMwLDEuNzUsMCwxLjc1LDAsMS43NSAgICAgYy0wLjc4LDAtMC43OCwwLTAuNzgsMGMwLTAuMDQsMC4wNS0wLjExLDAuMS0wLjE1YzAuMTMtMC4xMSwwLjIzLTAuMywwLjI4LTAuNTNjMC4wMy0wLjc2LDAuMDMtMC43NiwwLjAzLTAuNzYgICAgIEMwLjQxLDQ2LjQsMC42OSw0Ni4zMiwwLjc4LDQ2LjMyeiIvPiYjeGE7CQk8L2c+JiN4YTsJCTxnIGlkPSJzaGFwZTcwOTItNTQiIHRyYW5zZm9ybT0idHJhbnNsYXRlKDIuMzM1MSwtMjQuNTIwNCkiPiYjeGE7CQkJPHRpdGxlIGlkPSJ0aXRsZTMxMTc2MyI+U2hlZXQuNzA5MjwvdGl0bGU+JiN4YTsJCQk8cGF0aCBpZD0icGF0aDMxMTc2NSIgaW5rc2NhcGU6Y29ubmVjdG9yLWN1cnZhdHVyZT0iMCIgc3R5bGU9ImZpbGw6I0U2MUUyNzsiIGQ9Ik00LjA2LDQ4LjA3bDYuMDUtNS45bC00LjEyLTQuMjJMMCw0My44OCAgICAgTDQuMDYsNDguMDd6Ii8+JiN4YTsJCTwvZz4mI3hhOwkJPGcgaWQ9InNoYXBlNzA5My01NiIgdHJhbnNmb3JtPSJ0cmFuc2xhdGUoMi4zMzUxLC0yNC41MjA0KSI+JiN4YTsJCQk8dGl0bGUgaWQ9InRpdGxlMzExNzY4Ij5TaGVldC43MDkzPC90aXRsZT4mI3hhOwkJCTxwYXRoIGlkPSJwYXRoMzExNzcwIiBpbmtzY2FwZTpjb25uZWN0b3ItY3VydmF0dXJlPSIwIiBzdHlsZT0iZmlsbDojRUQ0RTVBOyIgZD0iTTQuMDYsNDguMDdsNi4wNS01Ljg0TDAsNDMuOTNMNC4wNiw0OC4wN3oiLz4mI3hhOwkJPC9nPiYjeGE7CQk8ZyBpZD0ic2hhcGU3MDk0LTU4IiB0cmFuc2Zvcm09InRyYW5zbGF0ZSgwLjM5MDcxNSwtMzAuOTQyNCkiPiYjeGE7CQkJPHRpdGxlIGlkPSJ0aXRsZTMxMTc3MyI+U2hlZXQuNzA5NDwvdGl0bGU+JiN4YTsJCQk8cGF0aCBpZD0icGF0aDMxMTc3NSIgaW5rc2NhcGU6Y29ubmVjdG9yLWN1cnZhdHVyZT0iMCIgc3R5bGU9ImZpbGw6I0NFOUM1RTsiIGQ9Ik0wLDQ2LjRsMi4zNiwxLjY3bDQuMDYtNC42NGwtMy4yNC0yLjM3TDAsNDYuNCAgICAgeiIvPiYjeGE7CQk8L2c+JiN4YTsJCTxnIGlkPSJzaGFwZTcwOTUtNjAiIHRyYW5zZm9ybT0idHJhbnNsYXRlKDMuMTgyNzQsLTM0LjcxNzQpIj4mI3hhOwkJCTx0aXRsZSBpZD0idGl0bGUzMTE3NzgiPlNoZWV0LjcwOTU8L3RpdGxlPiYjeGE7CQkJPHBhdGggaWQ9InBhdGgzMTE3ODAiIGlua3NjYXBlOmNvbm5lY3Rvci1jdXJ2YXR1cmU9IjAiIHN0eWxlPSJmaWxsOiNFNkU3RTg7IiBkPSJNMC4zOCw0NC45NWMwLjYzLTAuODYsMS44Ni0xLjA5LDIuNzYtMC40MiAgICAgYzAuODksMC42NCwxLjA3LDEuODUsMC40NCwyLjc0Yy0wLjY3LDAuODUtMS44NiwxLjA3LTIuNzYsMC40NUMtMC4wNyw0Ny4wOS0wLjI2LDQ1Ljg3LDAuMzgsNDQuOTV6Ii8+JiN4YTsJCTwvZz4mI3hhOwkJPGcgaWQ9InNoYXBlNzA5Ni02MiIgdHJhbnNmb3JtPSJ0cmFuc2xhdGUoNS40NDYxMSwtMjYuNTQzMikiPiYjeGE7CQkJPHRpdGxlIGlkPSJ0aXRsZTMxMTc4MyI+U2hlZXQuNzA5NjwvdGl0bGU+JiN4YTsJCQk8cGF0aCBpZD0icGF0aDMxMTc4NSIgaW5rc2NhcGU6Y29ubmVjdG9yLWN1cnZhdHVyZT0iMCIgc3R5bGU9ImZpbGw6I0NEOUI1RTsiIGQ9Ik0xLjUzLDQ2Ljk1YzAuOTIsMC44NywxLjM3LDAuOTQsMi40MiwxLjA5ICAgICBjMC42MywwLjEsMC44NS0wLjA4LDAuNjMtMC4zYzAuNTUsMC4yNiwxLjExLTAuMTIsMC43MS0wLjNjMC4xNCwwLDAuNTEtMC4xMSwwLjUxLTAuMzRjMC4wMy0wLjE4LTAuMzctMC4yMi0wLjUxLTAuMjIgICAgIGMwLjE0LTAuMiwwLjExLTAuNDUtMC4zOC0wLjQ5Yy0wLjM4LTAuMDMtMC42LTAuMjMtMC42LTAuMjNjMC40NS0wLjExLDAuNi0wLjQxLDAuNDktMC41OWMtMC40OSwwLjAzLTEuMjMtMC4xNi0xLjgyLTAuMTEgICAgIGMtMC4xMSwwLTAuMjIsMC4wMy0wLjMzLDAuMDdjLTIuMzgtMS40Ny0yLjM4LTEuNDctMi4zOC0xLjQ3QzAsNDYuMTMsMCw0Ni4xMywwLDQ2LjEzTDEuNTMsNDYuOTV6Ii8+JiN4YTsJCTwvZz4mI3hhOwkJPGcgaWQ9InNoYXBlNzA5Ny02NCIgdHJhbnNmb3JtPSJ0cmFuc2xhdGUoMCwtMzAuMzY3MSkiPiYjeGE7CQkJPHRpdGxlIGlkPSJ0aXRsZTMxMTc4OCI+U2hlZXQuNzA5NzwvdGl0bGU+JiN4YTsJCQk8cGF0aCBpZD0icGF0aDMxMTc5MCIgaW5rc2NhcGU6Y29ubmVjdG9yLWN1cnZhdHVyZT0iMCIgc3R5bGU9ImZpbGw6I0NFOUM1RTsiIGQ9Ik0yLjI1LDQ1LjQyYzAuNjgsMC40MiwwLjg2LDEuMjgsMC40OSwxLjk5ICAgICBjLTAuNDIsMC42NC0xLjMzLDAuODYtMi4wMSwwLjQ1QzAsNDcuNDktMC4xOSw0Ni41OCwwLjIsNDUuOTFDMC42NSw0NS4xOSwxLjUyLDQ0Ljk2LDIuMjUsNDUuNDJ6Ii8+JiN4YTsJCTwvZz4mI3hhOwkJPGcgaWQ9InNoYXBlNzA5OC02NiIgdHJhbnNmb3JtPSJ0cmFuc2xhdGUoMC43Nzk1OTEsLTI3LjYzNDEpIj4mI3hhOwkJCTx0aXRsZSBpZD0idGl0bGUzMTE3OTMiPlNoZWV0LjcwOTg8L3RpdGxlPiYjeGE7CQkJPHBhdGggaWQ9InBhdGgzMTE3OTUiIGlua3NjYXBlOmNvbm5lY3Rvci1jdXJ2YXR1cmU9IjAiIHN0eWxlPSJmaWxsOiNDRTlDNUU7IiBkPSJNNi4yMiw0OC4wN2wwLjM5LTEuODNsLTUuMTMtMy40M0wwLDQ1LjE2ICAgICBMNi4yMiw0OC4wN3oiLz4mI3hhOwkJPC9nPiYjeGE7CQk8ZyBpZD0ic2hhcGU3MDk5LTY4IiB0cmFuc2Zvcm09InRyYW5zbGF0ZSgxLjE2ODQ3LC0zMi4zMDQ2KSI+JiN4YTsJCQk8dGl0bGUgaWQ9InRpdGxlMzExNzk4Ij5TaGVldC43MDk5PC90aXRsZT4mI3hhOwkJCTxwYXRoIGlkPSJwYXRoMzExODAwIiBpbmtzY2FwZTpjb25uZWN0b3ItY3VydmF0dXJlPSIwIiBzdHlsZT0iZmlsbDojRTZFN0U4OyIgZD0iTTAsNDUuOTVsMy4yMSwyLjEybDMuNC0zLjk4bC0yLjczLTEuNjdIMi40MiAgICAgTDAsNDUuOTV6Ii8+JiN4YTsJCTwvZz4mI3hhOwkJPGcgaWQ9InNoYXBlNzEwMC03MCIgdHJhbnNmb3JtPSJ0cmFuc2xhdGUoMTIuODM0OCwtMzEuMTM3KSI+JiN4YTsJCQk8dGl0bGUgaWQ9InRpdGxlMzExODAzIj5TaGVldC43MTAwPC90aXRsZT4mI3hhOwkJCTxwYXRoIGlkPSJwYXRoMzExODA1IiBpbmtzY2FwZTpjb25uZWN0b3ItY3VydmF0dXJlPSIwIiBzdHlsZT0iZmlsbDojQ0U5QzVFOyIgZD0iTTYuMjIsNDYuNzVsLTIuMzQsMS4zMkwwLDQzLjU0bDMuMTEtMi4yOCAgICAgTDYuMjIsNDYuNzV6Ii8+JiN4YTsJCTwvZz4mI3hhOwkJPGcgaWQ9InNoYXBlNzEwMS03MiIgdHJhbnNmb3JtPSJ0cmFuc2xhdGUoMTIuMzI5MSwtMzQuOTA3NSkiPiYjeGE7CQkJPHRpdGxlIGlkPSJ0aXRsZTMxMTgwOCI+U2hlZXQuNzEwMTwvdGl0bGU+JiN4YTsJCQk8cGF0aCBpZD0icGF0aDMxMTgxMCIgaW5rc2NhcGU6Y29ubmVjdG9yLWN1cnZhdHVyZT0iMCIgc3R5bGU9ImZpbGw6I0U2RTdFODsiIGQ9Ik0zLjYsNDQuOTFjLTAuNjYtMC44Ni0xLjg1LTEuMDUtMi43OS0wLjQxICAgICBjLTAuODksMC42Ny0xLjA4LDEuODYtMC40LDIuNzdjMC42MywwLjg4LDEuODYsMS4wNywyLjc2LDAuNDNDNC4wMiw0Ny4wNyw0LjIsNDUuODQsMy42LDQ0LjkxeiIvPiYjeGE7CQk8L2c+JiN4YTsJCTxnIGlkPSJzaGFwZTcxMDItNzQiIHRyYW5zZm9ybT0idHJhbnNsYXRlKDEzLjIyMzYsLTIyLjcwMSkiPiYjeGE7CQkJPHRpdGxlIGlkPSJ0aXRsZTMxMTgxMyI+U2hlZXQuNzEwMjwvdGl0bGU+JiN4YTsJCQk8cGF0aCBpZD0icGF0aDMxMTgxNSIgaW5rc2NhcGU6Y29ubmVjdG9yLWN1cnZhdHVyZT0iMCIgc3R5bGU9ImZpbGw6I0NEOUI1RTsiIGQ9Ik0zLjI5LDQ1LjEzYy0wLjE4LDEuMi0wLjQ3LDEuNTMtMS4xNCwyLjMgICAgIGMtMC40LDAuNDctMC42OCwwLjQ3LTAuNjQsMC4xOGMtMC4yNiwwLjU1LTAuOSwwLjU4LTAuNzIsMC4yMmMtMC4xMSwwLjA3LTAuNDMsMC4yNS0wLjU3LDAuMDdjLTAuMTUtMC4xMSwwLjExLTAuNCwwLjIyLTAuNDcgICAgIGMtMC4yMi0wLjA3LTAuMzctMC4yOSwwLTAuNjJjMC4yNC0wLjI2LDAuMzEtMC41NSwwLjMxLTAuNTVDMC4zMyw0Ni40NCwwLjA0LDQ2LjMzLDAsNDYuMTFjMC40LTAuMjUsMC44My0wLjg3LDEuMjktMS4yICAgICBjMC4xMS0wLjA3LDAuMjItMC4xNSwwLjMzLTAuMThjMC44NS0yLjU3LDAuODUtMi41NywwLjg1LTIuNTdjMS40MiwxLjM2LDEuNDIsMS4zNiwxLjQyLDEuMzZMMy4yOSw0NS4xM3oiLz4mI3hhOwkJPC9nPiYjeGE7CQk8ZyBpZD0ic2hhcGU3MTAzLTc2IiB0cmFuc2Zvcm09InRyYW5zbGF0ZSgxNy4wODA3LC0zMC43MjEyKSI+JiN4YTsJCQk8dGl0bGUgaWQ9InRpdGxlMzExODE4Ij5TaGVldC43MTAzPC90aXRsZT4mI3hhOwkJCTxwYXRoIGlkPSJwYXRoMzExODIwIiBpbmtzY2FwZTpjb25uZWN0b3ItY3VydmF0dXJlPSIwIiBzdHlsZT0iZmlsbDojQ0U5QzVFOyIgZD0iTTAuNTIsNDUuODZjLTAuNSwwLjM0LTAuNjgsMS4xMS0wLjM1LDEuNjYgICAgIGMwLjMxLDAuNTMsMC45OSwwLjcyLDEuNTMsMC4zOGMwLjUzLTAuMzEsMC42Ni0xLjA0LDAuMzUtMS42MUMxLjczLDQ1LjcxLDEuMDUsNDUuNTEsMC41Miw0NS44NnoiLz4mI3hhOwkJPC9nPiYjeGE7CQk8ZyBpZD0ic2hhcGU3MTA0LTc4IiB0cmFuc2Zvcm09InRyYW5zbGF0ZSgxNC45NzM2LC0yNS40OTM0KSI+JiN4YTsJCQk8dGl0bGUgaWQ9InRpdGxlMzExODIzIj5TaGVldC43MTA0PC90aXRsZT4mI3hhOwkJCTxwYXRoIGlkPSJwYXRoMzExODI1IiBpbmtzY2FwZTpjb25uZWN0b3ItY3VydmF0dXJlPSIwIiBzdHlsZT0iZmlsbDojQ0U5QzVFOyIgZD0iTTEuNTEsNDguMDdMMCw0Ni44OWwxLjctNi4wMmwyLjU4LDEuMDYgICAgIEwxLjUxLDQ4LjA3eiIvPiYjeGE7CQk8L2c+JiN4YTsJCTxnIGlkPSJzaGFwZTcxMDUtODAiIHRyYW5zZm9ybT0idHJhbnNsYXRlKDExLjg2MjYsLTMyLjQ5OTMpIj4mI3hhOwkJCTx0aXRsZSBpZD0idGl0bGUzMTE4MjgiPlNoZWV0LjcxMDU8L3RpdGxlPiYjeGE7CQkJPHBhdGggaWQ9InBhdGgzMTE4MzAiIGlua3NjYXBlOmNvbm5lY3Rvci1jdXJ2YXR1cmU9IjAiIHN0eWxlPSJmaWxsOiNFNkU3RTg7IiBkPSJNNi40Miw0NmwtMy4wOCwyLjA3TDAsNDQuMjZsMi42NC0xLjY0aDEuNDcgICAgIEw2LjQyLDQ2eiIvPiYjeGE7CQk8L2c+JiN4YTsJPC9nPiYjeGE7PC9nPiYjeGE7PC9zdmc+;" vertex="1" parent="1">
          <mxGeometry x="-590" y="-717" width="27" height="68" as="geometry" />
        </mxCell>
        <mxCell id="iH1DfiRrB-YtXp9Mqeux-3" value="1" style="ellipse;whiteSpace=wrap;html=1;aspect=fixed;fillColor=#4D9900;strokeColor=none;labelBackgroundColor=none;" vertex="1" parent="1">
          <mxGeometry x="-499" y="-740" width="23" height="23" as="geometry" />
        </mxCell>
        <mxCell id="iH1DfiRrB-YtXp9Mqeux-9" value="2" style="ellipse;whiteSpace=wrap;html=1;aspect=fixed;fillColor=#4D9900;strokeColor=none;labelBackgroundColor=none;" vertex="1" parent="1">
          <mxGeometry x="-220" y="-717" width="23" height="23" as="geometry" />
        </mxCell>
        <mxCell id="iH1DfiRrB-YtXp9Mqeux-14" value="" style="rounded=0;whiteSpace=wrap;html=1;" vertex="1" parent="1">
          <mxGeometry x="-54.5" y="-1012" width="346" height="160" as="geometry" />
        </mxCell>
        <mxCell id="iH1DfiRrB-YtXp9Mqeux-17" style="edgeStyle=orthogonalEdgeStyle;rounded=0;orthogonalLoop=1;jettySize=auto;html=1;entryX=0;entryY=0.5;entryDx=0;entryDy=0;" edge="1" parent="1" source="iH1DfiRrB-YtXp9Mqeux-10" target="iH1DfiRrB-YtXp9Mqeux-16">
          <mxGeometry relative="1" as="geometry" />
        </mxCell>
        <mxCell id="iH1DfiRrB-YtXp9Mqeux-19" value="Create Artifact" style="edgeLabel;html=1;align=center;verticalAlign=middle;resizable=0;points=[];" vertex="1" connectable="0" parent="iH1DfiRrB-YtXp9Mqeux-17">
          <mxGeometry x="-0.2373" relative="1" as="geometry">
            <mxPoint as="offset" />
          </mxGeometry>
        </mxCell>
        <mxCell id="iH1DfiRrB-YtXp9Mqeux-10" value="Github Actions" style="dashed=0;outlineConnect=0;html=1;align=center;labelPosition=center;verticalLabelPosition=bottom;verticalAlign=top;shape=mxgraph.weblogos.github" vertex="1" parent="1">
          <mxGeometry x="-23.5" y="-986.5" width="75" height="75" as="geometry" />
        </mxCell>
        <mxCell id="iH1DfiRrB-YtXp9Mqeux-15" value="Front End CI" style="text;html=1;align=center;verticalAlign=middle;resizable=0;points=[];autosize=1;strokeColor=none;fillColor=none;" vertex="1" parent="1">
          <mxGeometry x="-58.5" y="-1040" width="90" height="30" as="geometry" />
        </mxCell>
        <mxCell id="iH1DfiRrB-YtXp9Mqeux-16" value="Artifact" style="image;html=1;image=img/lib/clip_art/general/Empty_Folder_128x128.png" vertex="1" parent="1">
          <mxGeometry x="182.5" y="-987" width="80" height="80" as="geometry" />
        </mxCell>
        <mxCell id="iH1DfiRrB-YtXp9Mqeux-18" value="3" style="ellipse;whiteSpace=wrap;html=1;aspect=fixed;fillColor=#4D9900;strokeColor=none;labelBackgroundColor=none;" vertex="1" parent="1">
          <mxGeometry x="106.5" y="-987" width="23" height="23" as="geometry" />
        </mxCell>
        <mxCell id="iH1DfiRrB-YtXp9Mqeux-47" value="AWS Amplify" style="sketch=0;points=[[0,0,0],[0.25,0,0],[0.5,0,0],[0.75,0,0],[1,0,0],[0,1,0],[0.25,1,0],[0.5,1,0],[0.75,1,0],[1,1,0],[0,0.25,0],[0,0.5,0],[0,0.75,0],[1,0.25,0],[1,0.5,0],[1,0.75,0]];outlineConnect=0;fontColor=#232F3E;fillColor=#DD344C;strokeColor=#ffffff;dashed=0;verticalLabelPosition=bottom;verticalAlign=top;align=center;html=1;fontSize=12;fontStyle=0;aspect=fixed;shape=mxgraph.aws4.resourceIcon;resIcon=mxgraph.aws4.amplify;" vertex="1" parent="1">
          <mxGeometry x="522.5" y="-971" width="78" height="78" as="geometry" />
        </mxCell>
        <mxCell id="iH1DfiRrB-YtXp9Mqeux-51" value="Fronend Deploy (Only for main branch)" style="text;html=1;align=center;verticalAlign=middle;resizable=0;points=[];autosize=1;strokeColor=none;fillColor=none;" vertex="1" parent="1">
          <mxGeometry x="390" y="-1040" width="230" height="30" as="geometry" />
        </mxCell>
        <mxCell id="iH1DfiRrB-YtXp9Mqeux-52" value="" style="shape=image;verticalLabelPosition=bottom;labelBackgroundColor=default;verticalAlign=top;aspect=fixed;imageAspect=0;image=data:image/png,iVBORw0KGgoAAAANSUhEUgAAAJQAAACUCAMAAABC4vDmAAAAwFBMVEX///8lLz7/mQD/lgD/kwD/kQAhLDsfKjoaJjccKDgKGi78/PwNHTCTlZsVIjT/jwAAEikAFywAACHY2dv19vYAAB0AABm7vcDs7e4ACyX/+/ZUWmQAABWhpKlpb3fCxMdCSVX/8OH/9uzMzdCJjJJdYmusrrLi4+R4fIM3QEwtNkRJUFuChIoAAA//3bv/nBn/o0D/sWH/nzD/pkv/5cv/t3H/zZ/+2rD/063/vH3/pzr/x5P+v3f+r1f/qFf/wIeY1yfTAAAKzUlEQVR4nO1Zd3eiThsVQYoiiGAloogFy4pds8b4/b/VbyoyA2ZTdpP3vIf7R47U585T75BCIUeOHDly5MiRI0eOHDly5MiR4/8RlXZ7ak+nbeefWgE2giCwp++w4gS90F0MZvPZbLHwqjb3SAUh68GPXbGr3mI2F2RhPnCBlczn6K2TcaNhGZoiQyiKWm7WwyBxw8SAEFw7tZbqHFzQhbCdeulopoNLVpi4ebJ4KqvAgiAIwAywYi37D3gFnmCpAg9dCe/eCi1EtzzmfT5p4IV0RvxbW0/oijq/23FrGmdE1o3xNMtLbl2VU5QgyvPYMa0aPtXhXTUgZmSFu1Dx8DqNMT1TradXDhc/Szu5MC5nMoJQZbqK6RzzrvXYhx2L3mtwdKcDBS+jRU4sH9kxWgUeDnkYLlYF2WGo2t1vxoKEy/GwR1SXfTqoxQuecFcwXVkj66p26J2yUe4AgBTGhgzuSYA2JqXqxnww9sJR6LlzzYhNUc9UdfxCmU2qnh7zX7LvrWJSqucQjmSphjYIq61Wa9ILxzNNVx6QkgWl/ORWW1NaB+2+VyOvUBRCwm4QlsmaLFTCOE00l6VLko2sqrIgN1pecC+3dlCd1Q0rK3w1dTDiO1mgkKB26DJIMRhMUrXj2AuyylRRpY5Pl/HZPvE9n5MFp++5GeU3GfUzemufVJVGi2dUJuFI9hU7kbydPvM8TjZlRp7GYb6X4uewJElECzbA9uV5soAnyPR8jnzCdKoRdo1VRUeOS/oDQ/zjsIn/FZJENFLNZOl70LQWjuElbZG44IwxCwvf7QgyXlFqInwMlRkmEXeRkFk7BjpVnuDSlBM+JH1NcfG5NnH7V0lREnFTaOFGk+xUUxTShh3U+diQlKJ9wlFwmahM7X4C1TJLyvmFVyvcHTJBDqgVCk10Z8KHJCNrhKezwHVjeF8k1cPdrxybIp0n4RCUzeqCXDIShYljL1scyXuH+SRwZSVIkRNGfMJxIRerR/p9ojDb+FY9li0tOiOsDI3zFVK2ynWqKaopGKI+juNdVJDoxb3amdGBWp6NPkKr0p5ObRuI4Uo2KWessUnVr6NGBhryFNm8t+slcgy6RGnG81gxngYTXtg+YBQAnQrE8HwGZOqoBwZUihRtyw3qEDRztXEFBlJJpjGhryWSrDKORze4UBPG1Sxtx8AOn+q6qihEDBtW/ZfmKjwpMpR12rpRO8U1h1wjzwgJG9eIlcxqx02wAopG/2VUgzf85Sy15APkMTJqE6QKWH4opHU7KEZ1VIw4OjLxIYnVLyZ5pguLFbhyTRk/LMZAeKw9WVK4sGmV4cn/hFaLmxgVemj6COqAMzS66zQax47Sytw4BMpdzSsqhJbQngwpotTJ5EECj8qAuZIILDpIy5SC7Vk6p9MVK8xgZdM4gfQzXC8MQw9oz1qnnBE+XGQkjSrIH1QbICdqWD3bZNJlDLp2b2xxW5qam8qsiktcKuuDFm4HFQf0htZoIKdIFfAORUUbrTbq2lQ2TlBud1Bg8fRR0sYgHHuyANo7EQs95O+ZEJmrlPmcIw2QITXB+axB23ZNSMx9G8kCLPTwKE+OQt5fk1BI7LeanB52FiRKWkooZ5FqY5GFKg71sdgdWG6hpCLKq/mWTKm0+65BaWkum1YBia++TD3XKqdJFfC0R7ZRSqmx61FkFahrcDu7D+NHCOLOZbCKpke6QWrnmzFmILCeUQbgJ4pXbcLcLs9Bn+7VHiyThxMSVmW2TslpZZCuy5R0QavD4w/YttGve3/E/lFBYLEStt6h5ypEYnMyiwp6L02KKk+GFMlB0KlQicny3YAu4zU7yIXy4I+zrRDvZbl9NxVuqaoEWj9zFXj+g6RC0zl5EeUYOBHgtpF+YwaIzGL2HLGn1HHKUy2ym1HZrVqAo+S2scBL9BGUSrLm9JChTnrb+5gUZwNPKUGZ86TiXqEsmEsObnsqTi4lkTj4zJONX9l86xvdfSFWVu2PqHbmqq8SxrrBYhszTjUDfURQFgkd0EYzqFxFyfu+rTDW03CTxpyekJbAZY6zjIWi0GDLaELqFfmLeQpVnTzHi2TNtEe9LA2MmwfQsqxLbPIxjCmySjBL6Csu4NPZfWxZTH+pxh/QUrvOXlPXvYDj1SafJ3gLtKkA1JbkPdOJp0Ovlumk5tbh3oc8O0mCRnxB4woHmtdrizChze3egi7iie/c9JMBiGB57o28gVbGkseq0r0aN8V78cc7oc5ccPTYh7yUwj5RDB28HOwBgDYCv+jiyunJHSacDiQF1Xf1sDCledVhUn36FAeW7XkVNx78Ta5zJiOrqYahxp+1wOpTX5zhziNDDCtoGpFPigbbL+KPclxKxRt9MhuTCJppG9RPGcME5NvC4u6TdSx426jGajMu5LFt/mtTi5aHlQrIsmlkfhZXn0YPdjQjI7mZUSxhST906qqhpgxM5zX0/4cOLy3hl0pwXrWE9Nyzw3mH3zbIuj5+LLrssFHXDbhnMGpNIbFN7M8XGU/ZIw9ilDJtL8cQYaZAsCdjq1HTVQ1sLxWQWFbDCIM3+z7YIC/BjiEcTd4z3D8Nu1X1xu5isRh7oD2865Hs/0X9bThtAOdbTOXIkSPHl9Gl+GkiFP7q+Hz9HUViFEW758tq+NOEuv7LOhIlURSLCCL4vX0B/vJ/jtN5V5IInQTMS+EqbX6GVmUVZTCC7toWoPcuP0CruynFMRPj+CFEBX8rFsXo+O3p9WxKkhht1+vd6+v1en3drYsSZQVyalsqFkvb4zeX4/52PK/2/nBI7Q73lxINHzg6gANR+gFv8VghVuIBHUBWRdH8dm/xGG4hKemGj04o0UDK336wQYDkf4U0SityuI9w+kvRYf9zpIY75JvYMd0NyX3R/L36Vnf5560pYk/4yDO7RG4fTdo3pO3zt9HaP29BvxLX+MCE5jcM5V2JNgrJ3J6/gZd/jEwUIELqIiVTCmP4YsaNVSxFm9M/ZTQ8bbakqYsmDh9KKZPfde13cVeFvMzrv/KXv7qadMwUpSu2MozgwSF1c/dmJqeQWNpujn+dl3+MfYTcdCHtcQXPSausJzbs7Ab+Kj6v/L/VVv3Vc3T3EUyha9yDnkWY5pl75i6QFJyYkErb1+evS8Lh6gZcxKwZKJR4uSh6ZpajEK1jVCryEM1SdDjuP+kyf39+iUomJ6BE8ZBY6cokw/jRO25ilv6CYnV3vaz8DzitO1wdN69b4BP+jaK0Y9L1CqP3yFGUFh/E+F2mKf6+3o4nqDweOK47HPr71fF2WBdNM80H5eqVJeBHmaXH0XrO9BZ1PJBoUKPtXq+bl9vlfD6fTqvT6Xw+Xl42ULKtgXOkTDr4+d97bj1HKDb/HAL/EpmPecWvhwRLECb6K0niG6tBkMT02O+Czim+SwwMT9tHUfw0RHF7yHCIXyqWzu/hBLF/Lv7ZXe9nVCptzpl5eJCky3s5IXftHmyGPspIKm5vj3rKLnq3nwj841X8or/AZPh9eSNn/E9Ms65/voL8+hwx2N+ul782qhj4q8s61ZX/TMiUYL/9F4QIKmB+XdfR4waUpCOWxGh9fdl/y9ZtCHr1y9Y0Ua9Os4ONqwQubg/nDw2kv4GKvz/dDtfrbr2NIIrwD9yG7zYvl9Pe/8nP9t3u0Pf3BL4PpuH/zOe4HDly5MiRI0eOHDly5MiRI0eOn8N/wJ3xemuJ9DUAAAAASUVORK5CYII=;" vertex="1" parent="1">
          <mxGeometry x="400" y="-914" width="70" height="70" as="geometry" />
        </mxCell>
        <mxCell id="iH1DfiRrB-YtXp9Mqeux-58" value="" style="group" vertex="1" connectable="0" parent="1">
          <mxGeometry x="289" y="-738.5" width="250" height="180" as="geometry" />
        </mxCell>
        <mxCell id="iH1DfiRrB-YtXp9Mqeux-53" value="&lt;br&gt;&lt;div&gt;&lt;br/&gt;&lt;/div&gt;" style="rounded=0;whiteSpace=wrap;html=1;" vertex="1" parent="iH1DfiRrB-YtXp9Mqeux-58">
          <mxGeometry y="25.714285714285715" width="250" height="154.28571428571428" as="geometry" />
        </mxCell>
        <mxCell id="iH1DfiRrB-YtXp9Mqeux-55" value="Docker Image Push (Only for main branch)" style="text;html=1;align=center;verticalAlign=middle;resizable=0;points=[];autosize=1;strokeColor=none;fillColor=none;" vertex="1" parent="iH1DfiRrB-YtXp9Mqeux-58">
          <mxGeometry x="-10" width="250" height="30" as="geometry" />
        </mxCell>
        <mxCell id="iH1DfiRrB-YtXp9Mqeux-56" value="" style="shape=image;verticalLabelPosition=bottom;labelBackgroundColor=default;verticalAlign=top;aspect=fixed;imageAspect=0;image=data:image/png,iVBORw0KGgoAAAANSUhEUgAAAJQAAACUCAMAAABC4vDmAAAAwFBMVEX///8lLz7/mQD/lgD/kwD/kQAhLDsfKjoaJjccKDgKGi78/PwNHTCTlZsVIjT/jwAAEikAFywAACHY2dv19vYAAB0AABm7vcDs7e4ACyX/+/ZUWmQAABWhpKlpb3fCxMdCSVX/8OH/9uzMzdCJjJJdYmusrrLi4+R4fIM3QEwtNkRJUFuChIoAAA//3bv/nBn/o0D/sWH/nzD/pkv/5cv/t3H/zZ/+2rD/063/vH3/pzr/x5P+v3f+r1f/qFf/wIeY1yfTAAAKzUlEQVR4nO1Zd3eiThsVQYoiiGAloogFy4pds8b4/b/VbyoyA2ZTdpP3vIf7R47U585T75BCIUeOHDly5MiRI0eOHDly5MiR4/8RlXZ7ak+nbeefWgE2giCwp++w4gS90F0MZvPZbLHwqjb3SAUh68GPXbGr3mI2F2RhPnCBlczn6K2TcaNhGZoiQyiKWm7WwyBxw8SAEFw7tZbqHFzQhbCdeulopoNLVpi4ebJ4KqvAgiAIwAywYi37D3gFnmCpAg9dCe/eCi1EtzzmfT5p4IV0RvxbW0/oijq/23FrGmdE1o3xNMtLbl2VU5QgyvPYMa0aPtXhXTUgZmSFu1Dx8DqNMT1TradXDhc/Szu5MC5nMoJQZbqK6RzzrvXYhx2L3mtwdKcDBS+jRU4sH9kxWgUeDnkYLlYF2WGo2t1vxoKEy/GwR1SXfTqoxQuecFcwXVkj66p26J2yUe4AgBTGhgzuSYA2JqXqxnww9sJR6LlzzYhNUc9UdfxCmU2qnh7zX7LvrWJSqucQjmSphjYIq61Wa9ILxzNNVx6QkgWl/ORWW1NaB+2+VyOvUBRCwm4QlsmaLFTCOE00l6VLko2sqrIgN1pecC+3dlCd1Q0rK3w1dTDiO1mgkKB26DJIMRhMUrXj2AuyylRRpY5Pl/HZPvE9n5MFp++5GeU3GfUzemufVJVGi2dUJuFI9hU7kbydPvM8TjZlRp7GYb6X4uewJElECzbA9uV5soAnyPR8jnzCdKoRdo1VRUeOS/oDQ/zjsIn/FZJENFLNZOl70LQWjuElbZG44IwxCwvf7QgyXlFqInwMlRkmEXeRkFk7BjpVnuDSlBM+JH1NcfG5NnH7V0lREnFTaOFGk+xUUxTShh3U+diQlKJ9wlFwmahM7X4C1TJLyvmFVyvcHTJBDqgVCk10Z8KHJCNrhKezwHVjeF8k1cPdrxybIp0n4RCUzeqCXDIShYljL1scyXuH+SRwZSVIkRNGfMJxIRerR/p9ojDb+FY9li0tOiOsDI3zFVK2ynWqKaopGKI+juNdVJDoxb3amdGBWp6NPkKr0p5ObRuI4Uo2KWessUnVr6NGBhryFNm8t+slcgy6RGnG81gxngYTXtg+YBQAnQrE8HwGZOqoBwZUihRtyw3qEDRztXEFBlJJpjGhryWSrDKORze4UBPG1Sxtx8AOn+q6qihEDBtW/ZfmKjwpMpR12rpRO8U1h1wjzwgJG9eIlcxqx02wAopG/2VUgzf85Sy15APkMTJqE6QKWH4opHU7KEZ1VIw4OjLxIYnVLyZ5pguLFbhyTRk/LMZAeKw9WVK4sGmV4cn/hFaLmxgVemj6COqAMzS66zQax47Sytw4BMpdzSsqhJbQngwpotTJ5EECj8qAuZIILDpIy5SC7Vk6p9MVK8xgZdM4gfQzXC8MQw9oz1qnnBE+XGQkjSrIH1QbICdqWD3bZNJlDLp2b2xxW5qam8qsiktcKuuDFm4HFQf0htZoIKdIFfAORUUbrTbq2lQ2TlBud1Bg8fRR0sYgHHuyANo7EQs95O+ZEJmrlPmcIw2QITXB+axB23ZNSMx9G8kCLPTwKE+OQt5fk1BI7LeanB52FiRKWkooZ5FqY5GFKg71sdgdWG6hpCLKq/mWTKm0+65BaWkum1YBia++TD3XKqdJFfC0R7ZRSqmx61FkFahrcDu7D+NHCOLOZbCKpke6QWrnmzFmILCeUQbgJ4pXbcLcLs9Bn+7VHiyThxMSVmW2TslpZZCuy5R0QavD4w/YttGve3/E/lFBYLEStt6h5ypEYnMyiwp6L02KKk+GFMlB0KlQicny3YAu4zU7yIXy4I+zrRDvZbl9NxVuqaoEWj9zFXj+g6RC0zl5EeUYOBHgtpF+YwaIzGL2HLGn1HHKUy2ym1HZrVqAo+S2scBL9BGUSrLm9JChTnrb+5gUZwNPKUGZ86TiXqEsmEsObnsqTi4lkTj4zJONX9l86xvdfSFWVu2PqHbmqq8SxrrBYhszTjUDfURQFgkd0EYzqFxFyfu+rTDW03CTxpyekJbAZY6zjIWi0GDLaELqFfmLeQpVnTzHi2TNtEe9LA2MmwfQsqxLbPIxjCmySjBL6Csu4NPZfWxZTH+pxh/QUrvOXlPXvYDj1SafJ3gLtKkA1JbkPdOJp0Ovlumk5tbh3oc8O0mCRnxB4woHmtdrizChze3egi7iie/c9JMBiGB57o28gVbGkseq0r0aN8V78cc7oc5ccPTYh7yUwj5RDB28HOwBgDYCv+jiyunJHSacDiQF1Xf1sDCledVhUn36FAeW7XkVNx78Ta5zJiOrqYahxp+1wOpTX5zhziNDDCtoGpFPigbbL+KPclxKxRt9MhuTCJppG9RPGcME5NvC4u6TdSx426jGajMu5LFt/mtTi5aHlQrIsmlkfhZXn0YPdjQjI7mZUSxhST906qqhpgxM5zX0/4cOLy3hl0pwXrWE9Nyzw3mH3zbIuj5+LLrssFHXDbhnMGpNIbFN7M8XGU/ZIw9ilDJtL8cQYaZAsCdjq1HTVQ1sLxWQWFbDCIM3+z7YIC/BjiEcTd4z3D8Nu1X1xu5isRh7oD2865Hs/0X9bThtAOdbTOXIkSPHl9Gl+GkiFP7q+Hz9HUViFEW758tq+NOEuv7LOhIlURSLCCL4vX0B/vJ/jtN5V5IInQTMS+EqbX6GVmUVZTCC7toWoPcuP0CruynFMRPj+CFEBX8rFsXo+O3p9WxKkhht1+vd6+v1en3drYsSZQVyalsqFkvb4zeX4/52PK/2/nBI7Q73lxINHzg6gANR+gFv8VghVuIBHUBWRdH8dm/xGG4hKemGj04o0UDK336wQYDkf4U0SityuI9w+kvRYf9zpIY75JvYMd0NyX3R/L36Vnf5560pYk/4yDO7RG4fTdo3pO3zt9HaP29BvxLX+MCE5jcM5V2JNgrJ3J6/gZd/jEwUIELqIiVTCmP4YsaNVSxFm9M/ZTQ8bbakqYsmDh9KKZPfde13cVeFvMzrv/KXv7qadMwUpSu2MozgwSF1c/dmJqeQWNpujn+dl3+MfYTcdCHtcQXPSausJzbs7Ab+Kj6v/L/VVv3Vc3T3EUyha9yDnkWY5pl75i6QFJyYkErb1+evS8Lh6gZcxKwZKJR4uSh6ZpajEK1jVCryEM1SdDjuP+kyf39+iUomJ6BE8ZBY6cokw/jRO25ilv6CYnV3vaz8DzitO1wdN69b4BP+jaK0Y9L1CqP3yFGUFh/E+F2mKf6+3o4nqDweOK47HPr71fF2WBdNM80H5eqVJeBHmaXH0XrO9BZ1PJBoUKPtXq+bl9vlfD6fTqvT6Xw+Xl42ULKtgXOkTDr4+d97bj1HKDb/HAL/EpmPecWvhwRLECb6K0niG6tBkMT02O+Czim+SwwMT9tHUfw0RHF7yHCIXyqWzu/hBLF/Lv7ZXe9nVCptzpl5eJCky3s5IXftHmyGPspIKm5vj3rKLnq3nwj841X8or/AZPh9eSNn/E9Ms65/voL8+hwx2N+ul782qhj4q8s61ZX/TMiUYL/9F4QIKmB+XdfR4waUpCOWxGh9fdl/y9ZtCHr1y9Y0Ua9Os4ONqwQubg/nDw2kv4GKvz/dDtfrbr2NIIrwD9yG7zYvl9Pe/8nP9t3u0Pf3BL4PpuH/zOe4HDly5MiRI0eOHDly5MiRI0eOn8N/wJ3xemuJ9DUAAAAASUVORK5CYII=;" vertex="1" parent="iH1DfiRrB-YtXp9Mqeux-58">
          <mxGeometry x="10" y="115.71428571428572" width="64.28571428571429" height="64.28571428571429" as="geometry" />
        </mxCell>
        <mxCell id="iH1DfiRrB-YtXp9Mqeux-57" value="AWS ECR" style="sketch=0;points=[[0,0,0],[0.25,0,0],[0.5,0,0],[0.75,0,0],[1,0,0],[0,1,0],[0.25,1,0],[0.5,1,0],[0.75,1,0],[1,1,0],[0,0.25,0],[0,0.5,0],[0,0.75,0],[1,0.25,0],[1,0.5,0],[1,0.75,0]];outlineConnect=0;fontColor=#232F3E;fillColor=#ED7100;strokeColor=#ffffff;dashed=0;verticalLabelPosition=bottom;verticalAlign=top;align=center;html=1;fontSize=12;fontStyle=0;aspect=fixed;shape=mxgraph.aws4.resourceIcon;resIcon=mxgraph.aws4.ecr;" vertex="1" parent="iH1DfiRrB-YtXp9Mqeux-58">
          <mxGeometry x="112" y="52.80612244897959" width="71.63265306122449" height="71.63265306122449" as="geometry" />
        </mxCell>
        <mxCell id="iH1DfiRrB-YtXp9Mqeux-27" value="" style="rounded=0;whiteSpace=wrap;html=1;" vertex="1" parent="1">
          <mxGeometry x="-54.5" y="-710" width="294.5" height="151.5" as="geometry" />
        </mxCell>
        <mxCell id="iH1DfiRrB-YtXp9Mqeux-28" style="edgeStyle=orthogonalEdgeStyle;rounded=0;orthogonalLoop=1;jettySize=auto;html=1;" edge="1" parent="1" source="iH1DfiRrB-YtXp9Mqeux-30" target="iH1DfiRrB-YtXp9Mqeux-53">
          <mxGeometry relative="1" as="geometry">
            <mxPoint x="186.5" y="-635" as="targetPoint" />
          </mxGeometry>
        </mxCell>
        <mxCell id="iH1DfiRrB-YtXp9Mqeux-29" value="Push Docker image" style="edgeLabel;html=1;align=center;verticalAlign=middle;resizable=0;points=[];" vertex="1" connectable="0" parent="iH1DfiRrB-YtXp9Mqeux-28">
          <mxGeometry x="-0.2373" relative="1" as="geometry">
            <mxPoint as="offset" />
          </mxGeometry>
        </mxCell>
        <mxCell id="iH1DfiRrB-YtXp9Mqeux-30" value="Github Actions" style="dashed=0;outlineConnect=0;html=1;align=center;labelPosition=center;verticalLabelPosition=bottom;verticalAlign=top;shape=mxgraph.weblogos.github" vertex="1" parent="1">
          <mxGeometry x="-19.5" y="-674.5" width="75" height="75" as="geometry" />
        </mxCell>
        <mxCell id="iH1DfiRrB-YtXp9Mqeux-31" value="Server CI/CD" style="text;html=1;align=center;verticalAlign=middle;resizable=0;points=[];autosize=1;strokeColor=none;fillColor=none;" vertex="1" parent="1">
          <mxGeometry x="-24.5" y="-753.5" width="90" height="30" as="geometry" />
        </mxCell>
        <mxCell id="iH1DfiRrB-YtXp9Mqeux-34" value="3" style="ellipse;whiteSpace=wrap;html=1;aspect=fixed;fillColor=#4D9900;strokeColor=none;labelBackgroundColor=none;" vertex="1" parent="1">
          <mxGeometry x="110.5" y="-675" width="23" height="23" as="geometry" />
        </mxCell>
        <mxCell id="iH1DfiRrB-YtXp9Mqeux-69" style="edgeStyle=orthogonalEdgeStyle;rounded=0;orthogonalLoop=1;jettySize=auto;html=1;entryX=0;entryY=0.5;entryDx=0;entryDy=0;" edge="1" parent="1" source="iH1DfiRrB-YtXp9Mqeux-53" target="iH1DfiRrB-YtXp9Mqeux-65">
          <mxGeometry relative="1" as="geometry" />
        </mxCell>
        <mxCell id="iH1DfiRrB-YtXp9Mqeux-70" value="4" style="ellipse;whiteSpace=wrap;html=1;aspect=fixed;fillColor=#4D9900;strokeColor=none;labelBackgroundColor=none;" vertex="1" parent="1">
          <mxGeometry x="550" y="-672" width="23" height="23" as="geometry" />
        </mxCell>
        <mxCell id="iH1DfiRrB-YtXp9Mqeux-72" value="" style="group" vertex="1" connectable="0" parent="1">
          <mxGeometry x="590" y="-740" width="230" height="180.0000000000001" as="geometry" />
        </mxCell>
        <mxCell id="iH1DfiRrB-YtXp9Mqeux-65" value="&lt;br&gt;&lt;div&gt;&lt;br/&gt;&lt;/div&gt;" style="rounded=0;whiteSpace=wrap;html=1;container=0;" vertex="1" parent="iH1DfiRrB-YtXp9Mqeux-72">
          <mxGeometry y="25.710000000000036" width="230" height="154.29" as="geometry" />
        </mxCell>
        <mxCell id="iH1DfiRrB-YtXp9Mqeux-71" value="App Runner" style="sketch=0;points=[[0,0,0],[0.25,0,0],[0.5,0,0],[0.75,0,0],[1,0,0],[0,1,0],[0.25,1,0],[0.5,1,0],[0.75,1,0],[1,1,0],[0,0.25,0],[0,0.5,0],[0,0.75,0],[1,0.25,0],[1,0.5,0],[1,0.75,0]];outlineConnect=0;fontColor=#232F3E;fillColor=#ED7100;strokeColor=#ffffff;dashed=0;verticalLabelPosition=bottom;verticalAlign=top;align=center;html=1;fontSize=12;fontStyle=0;aspect=fixed;shape=mxgraph.aws4.resourceIcon;resIcon=mxgraph.aws4.app_runner;" vertex="1" parent="iH1DfiRrB-YtXp9Mqeux-72">
          <mxGeometry x="110" y="52.5" width="78" height="78" as="geometry" />
        </mxCell>
        <mxCell id="iH1DfiRrB-YtXp9Mqeux-66" value="AWS App runner will pull image" style="text;html=1;align=center;verticalAlign=middle;resizable=0;points=[];autosize=1;strokeColor=none;fillColor=none;container=0;" vertex="1" parent="iH1DfiRrB-YtXp9Mqeux-72">
          <mxGeometry x="20" width="190" height="30" as="geometry" />
        </mxCell>
        <mxCell id="iH1DfiRrB-YtXp9Mqeux-67" value="" style="shape=image;verticalLabelPosition=bottom;labelBackgroundColor=default;verticalAlign=top;aspect=fixed;imageAspect=0;image=data:image/png,iVBORw0KGgoAAAANSUhEUgAAAJQAAACUCAMAAABC4vDmAAAAwFBMVEX///8lLz7/mQD/lgD/kwD/kQAhLDsfKjoaJjccKDgKGi78/PwNHTCTlZsVIjT/jwAAEikAFywAACHY2dv19vYAAB0AABm7vcDs7e4ACyX/+/ZUWmQAABWhpKlpb3fCxMdCSVX/8OH/9uzMzdCJjJJdYmusrrLi4+R4fIM3QEwtNkRJUFuChIoAAA//3bv/nBn/o0D/sWH/nzD/pkv/5cv/t3H/zZ/+2rD/063/vH3/pzr/x5P+v3f+r1f/qFf/wIeY1yfTAAAKzUlEQVR4nO1Zd3eiThsVQYoiiGAloogFy4pds8b4/b/VbyoyA2ZTdpP3vIf7R47U585T75BCIUeOHDly5MiRI0eOHDly5MiR4/8RlXZ7ak+nbeefWgE2giCwp++w4gS90F0MZvPZbLHwqjb3SAUh68GPXbGr3mI2F2RhPnCBlczn6K2TcaNhGZoiQyiKWm7WwyBxw8SAEFw7tZbqHFzQhbCdeulopoNLVpi4ebJ4KqvAgiAIwAywYi37D3gFnmCpAg9dCe/eCi1EtzzmfT5p4IV0RvxbW0/oijq/23FrGmdE1o3xNMtLbl2VU5QgyvPYMa0aPtXhXTUgZmSFu1Dx8DqNMT1TradXDhc/Szu5MC5nMoJQZbqK6RzzrvXYhx2L3mtwdKcDBS+jRU4sH9kxWgUeDnkYLlYF2WGo2t1vxoKEy/GwR1SXfTqoxQuecFcwXVkj66p26J2yUe4AgBTGhgzuSYA2JqXqxnww9sJR6LlzzYhNUc9UdfxCmU2qnh7zX7LvrWJSqucQjmSphjYIq61Wa9ILxzNNVx6QkgWl/ORWW1NaB+2+VyOvUBRCwm4QlsmaLFTCOE00l6VLko2sqrIgN1pecC+3dlCd1Q0rK3w1dTDiO1mgkKB26DJIMRhMUrXj2AuyylRRpY5Pl/HZPvE9n5MFp++5GeU3GfUzemufVJVGi2dUJuFI9hU7kbydPvM8TjZlRp7GYb6X4uewJElECzbA9uV5soAnyPR8jnzCdKoRdo1VRUeOS/oDQ/zjsIn/FZJENFLNZOl70LQWjuElbZG44IwxCwvf7QgyXlFqInwMlRkmEXeRkFk7BjpVnuDSlBM+JH1NcfG5NnH7V0lREnFTaOFGk+xUUxTShh3U+diQlKJ9wlFwmahM7X4C1TJLyvmFVyvcHTJBDqgVCk10Z8KHJCNrhKezwHVjeF8k1cPdrxybIp0n4RCUzeqCXDIShYljL1scyXuH+SRwZSVIkRNGfMJxIRerR/p9ojDb+FY9li0tOiOsDI3zFVK2ynWqKaopGKI+juNdVJDoxb3amdGBWp6NPkKr0p5ObRuI4Uo2KWessUnVr6NGBhryFNm8t+slcgy6RGnG81gxngYTXtg+YBQAnQrE8HwGZOqoBwZUihRtyw3qEDRztXEFBlJJpjGhryWSrDKORze4UBPG1Sxtx8AOn+q6qihEDBtW/ZfmKjwpMpR12rpRO8U1h1wjzwgJG9eIlcxqx02wAopG/2VUgzf85Sy15APkMTJqE6QKWH4opHU7KEZ1VIw4OjLxIYnVLyZ5pguLFbhyTRk/LMZAeKw9WVK4sGmV4cn/hFaLmxgVemj6COqAMzS66zQax47Sytw4BMpdzSsqhJbQngwpotTJ5EECj8qAuZIILDpIy5SC7Vk6p9MVK8xgZdM4gfQzXC8MQw9oz1qnnBE+XGQkjSrIH1QbICdqWD3bZNJlDLp2b2xxW5qam8qsiktcKuuDFm4HFQf0htZoIKdIFfAORUUbrTbq2lQ2TlBud1Bg8fRR0sYgHHuyANo7EQs95O+ZEJmrlPmcIw2QITXB+axB23ZNSMx9G8kCLPTwKE+OQt5fk1BI7LeanB52FiRKWkooZ5FqY5GFKg71sdgdWG6hpCLKq/mWTKm0+65BaWkum1YBia++TD3XKqdJFfC0R7ZRSqmx61FkFahrcDu7D+NHCOLOZbCKpke6QWrnmzFmILCeUQbgJ4pXbcLcLs9Bn+7VHiyThxMSVmW2TslpZZCuy5R0QavD4w/YttGve3/E/lFBYLEStt6h5ypEYnMyiwp6L02KKk+GFMlB0KlQicny3YAu4zU7yIXy4I+zrRDvZbl9NxVuqaoEWj9zFXj+g6RC0zl5EeUYOBHgtpF+YwaIzGL2HLGn1HHKUy2ym1HZrVqAo+S2scBL9BGUSrLm9JChTnrb+5gUZwNPKUGZ86TiXqEsmEsObnsqTi4lkTj4zJONX9l86xvdfSFWVu2PqHbmqq8SxrrBYhszTjUDfURQFgkd0EYzqFxFyfu+rTDW03CTxpyekJbAZY6zjIWi0GDLaELqFfmLeQpVnTzHi2TNtEe9LA2MmwfQsqxLbPIxjCmySjBL6Csu4NPZfWxZTH+pxh/QUrvOXlPXvYDj1SafJ3gLtKkA1JbkPdOJp0Ovlumk5tbh3oc8O0mCRnxB4woHmtdrizChze3egi7iie/c9JMBiGB57o28gVbGkseq0r0aN8V78cc7oc5ccPTYh7yUwj5RDB28HOwBgDYCv+jiyunJHSacDiQF1Xf1sDCledVhUn36FAeW7XkVNx78Ta5zJiOrqYahxp+1wOpTX5zhziNDDCtoGpFPigbbL+KPclxKxRt9MhuTCJppG9RPGcME5NvC4u6TdSx426jGajMu5LFt/mtTi5aHlQrIsmlkfhZXn0YPdjQjI7mZUSxhST906qqhpgxM5zX0/4cOLy3hl0pwXrWE9Nyzw3mH3zbIuj5+LLrssFHXDbhnMGpNIbFN7M8XGU/ZIw9ilDJtL8cQYaZAsCdjq1HTVQ1sLxWQWFbDCIM3+z7YIC/BjiEcTd4z3D8Nu1X1xu5isRh7oD2865Hs/0X9bThtAOdbTOXIkSPHl9Gl+GkiFP7q+Hz9HUViFEW758tq+NOEuv7LOhIlURSLCCL4vX0B/vJ/jtN5V5IInQTMS+EqbX6GVmUVZTCC7toWoPcuP0CruynFMRPj+CFEBX8rFsXo+O3p9WxKkhht1+vd6+v1en3drYsSZQVyalsqFkvb4zeX4/52PK/2/nBI7Q73lxINHzg6gANR+gFv8VghVuIBHUBWRdH8dm/xGG4hKemGj04o0UDK336wQYDkf4U0SityuI9w+kvRYf9zpIY75JvYMd0NyX3R/L36Vnf5560pYk/4yDO7RG4fTdo3pO3zt9HaP29BvxLX+MCE5jcM5V2JNgrJ3J6/gZd/jEwUIELqIiVTCmP4YsaNVSxFm9M/ZTQ8bbakqYsmDh9KKZPfde13cVeFvMzrv/KXv7qadMwUpSu2MozgwSF1c/dmJqeQWNpujn+dl3+MfYTcdCHtcQXPSausJzbs7Ab+Kj6v/L/VVv3Vc3T3EUyha9yDnkWY5pl75i6QFJyYkErb1+evS8Lh6gZcxKwZKJR4uSh6ZpajEK1jVCryEM1SdDjuP+kyf39+iUomJ6BE8ZBY6cokw/jRO25ilv6CYnV3vaz8DzitO1wdN69b4BP+jaK0Y9L1CqP3yFGUFh/E+F2mKf6+3o4nqDweOK47HPr71fF2WBdNM80H5eqVJeBHmaXH0XrO9BZ1PJBoUKPtXq+bl9vlfD6fTqvT6Xw+Xl42ULKtgXOkTDr4+d97bj1HKDb/HAL/EpmPecWvhwRLECb6K0niG6tBkMT02O+Czim+SwwMT9tHUfw0RHF7yHCIXyqWzu/hBLF/Lv7ZXe9nVCptzpl5eJCky3s5IXftHmyGPspIKm5vj3rKLnq3nwj841X8or/AZPh9eSNn/E9Ms65/voL8+hwx2N+ul782qhj4q8s61ZX/TMiUYL/9F4QIKmB+XdfR4waUpCOWxGh9fdl/y9ZtCHr1y9Y0Ua9Os4ONqwQubg/nDw2kv4GKvz/dDtfrbr2NIIrwD9yG7zYvl9Pe/8nP9t3u0Pf3BL4PpuH/zOe4HDly5MiRI0eOHDly5MiRI0eOn8N/wJ3xemuJ9DUAAAAASUVORK5CYII=;container=0;" vertex="1" parent="iH1DfiRrB-YtXp9Mqeux-72">
          <mxGeometry x="10" y="115.71428571428578" width="64.28571428571429" height="64.28571428571429" as="geometry" />
        </mxCell>
        <mxCell id="iH1DfiRrB-YtXp9Mqeux-74" value="&lt;br&gt;&lt;div&gt;&lt;br/&gt;&lt;/div&gt;" style="rounded=0;whiteSpace=wrap;html=1;container=0;" vertex="1" parent="1">
          <mxGeometry x="-10" y="-464.29" width="420" height="154.29" as="geometry" />
        </mxCell>
        <mxCell id="iH1DfiRrB-YtXp9Mqeux-76" value="Consumer Server on EC2 and ALB" style="text;html=1;align=center;verticalAlign=middle;resizable=0;points=[];autosize=1;strokeColor=none;fillColor=none;container=0;" vertex="1" parent="1">
          <mxGeometry y="-490" width="210" height="30" as="geometry" />
        </mxCell>
        <mxCell id="iH1DfiRrB-YtXp9Mqeux-77" value="" style="shape=image;verticalLabelPosition=bottom;labelBackgroundColor=default;verticalAlign=top;aspect=fixed;imageAspect=0;image=data:image/png,iVBORw0KGgoAAAANSUhEUgAAAJQAAACUCAMAAABC4vDmAAAAwFBMVEX///8lLz7/mQD/lgD/kwD/kQAhLDsfKjoaJjccKDgKGi78/PwNHTCTlZsVIjT/jwAAEikAFywAACHY2dv19vYAAB0AABm7vcDs7e4ACyX/+/ZUWmQAABWhpKlpb3fCxMdCSVX/8OH/9uzMzdCJjJJdYmusrrLi4+R4fIM3QEwtNkRJUFuChIoAAA//3bv/nBn/o0D/sWH/nzD/pkv/5cv/t3H/zZ/+2rD/063/vH3/pzr/x5P+v3f+r1f/qFf/wIeY1yfTAAAKzUlEQVR4nO1Zd3eiThsVQYoiiGAloogFy4pds8b4/b/VbyoyA2ZTdpP3vIf7R47U585T75BCIUeOHDly5MiRI0eOHDly5MiR4/8RlXZ7ak+nbeefWgE2giCwp++w4gS90F0MZvPZbLHwqjb3SAUh68GPXbGr3mI2F2RhPnCBlczn6K2TcaNhGZoiQyiKWm7WwyBxw8SAEFw7tZbqHFzQhbCdeulopoNLVpi4ebJ4KqvAgiAIwAywYi37D3gFnmCpAg9dCe/eCi1EtzzmfT5p4IV0RvxbW0/oijq/23FrGmdE1o3xNMtLbl2VU5QgyvPYMa0aPtXhXTUgZmSFu1Dx8DqNMT1TradXDhc/Szu5MC5nMoJQZbqK6RzzrvXYhx2L3mtwdKcDBS+jRU4sH9kxWgUeDnkYLlYF2WGo2t1vxoKEy/GwR1SXfTqoxQuecFcwXVkj66p26J2yUe4AgBTGhgzuSYA2JqXqxnww9sJR6LlzzYhNUc9UdfxCmU2qnh7zX7LvrWJSqucQjmSphjYIq61Wa9ILxzNNVx6QkgWl/ORWW1NaB+2+VyOvUBRCwm4QlsmaLFTCOE00l6VLko2sqrIgN1pecC+3dlCd1Q0rK3w1dTDiO1mgkKB26DJIMRhMUrXj2AuyylRRpY5Pl/HZPvE9n5MFp++5GeU3GfUzemufVJVGi2dUJuFI9hU7kbydPvM8TjZlRp7GYb6X4uewJElECzbA9uV5soAnyPR8jnzCdKoRdo1VRUeOS/oDQ/zjsIn/FZJENFLNZOl70LQWjuElbZG44IwxCwvf7QgyXlFqInwMlRkmEXeRkFk7BjpVnuDSlBM+JH1NcfG5NnH7V0lREnFTaOFGk+xUUxTShh3U+diQlKJ9wlFwmahM7X4C1TJLyvmFVyvcHTJBDqgVCk10Z8KHJCNrhKezwHVjeF8k1cPdrxybIp0n4RCUzeqCXDIShYljL1scyXuH+SRwZSVIkRNGfMJxIRerR/p9ojDb+FY9li0tOiOsDI3zFVK2ynWqKaopGKI+juNdVJDoxb3amdGBWp6NPkKr0p5ObRuI4Uo2KWessUnVr6NGBhryFNm8t+slcgy6RGnG81gxngYTXtg+YBQAnQrE8HwGZOqoBwZUihRtyw3qEDRztXEFBlJJpjGhryWSrDKORze4UBPG1Sxtx8AOn+q6qihEDBtW/ZfmKjwpMpR12rpRO8U1h1wjzwgJG9eIlcxqx02wAopG/2VUgzf85Sy15APkMTJqE6QKWH4opHU7KEZ1VIw4OjLxIYnVLyZ5pguLFbhyTRk/LMZAeKw9WVK4sGmV4cn/hFaLmxgVemj6COqAMzS66zQax47Sytw4BMpdzSsqhJbQngwpotTJ5EECj8qAuZIILDpIy5SC7Vk6p9MVK8xgZdM4gfQzXC8MQw9oz1qnnBE+XGQkjSrIH1QbICdqWD3bZNJlDLp2b2xxW5qam8qsiktcKuuDFm4HFQf0htZoIKdIFfAORUUbrTbq2lQ2TlBud1Bg8fRR0sYgHHuyANo7EQs95O+ZEJmrlPmcIw2QITXB+axB23ZNSMx9G8kCLPTwKE+OQt5fk1BI7LeanB52FiRKWkooZ5FqY5GFKg71sdgdWG6hpCLKq/mWTKm0+65BaWkum1YBia++TD3XKqdJFfC0R7ZRSqmx61FkFahrcDu7D+NHCOLOZbCKpke6QWrnmzFmILCeUQbgJ4pXbcLcLs9Bn+7VHiyThxMSVmW2TslpZZCuy5R0QavD4w/YttGve3/E/lFBYLEStt6h5ypEYnMyiwp6L02KKk+GFMlB0KlQicny3YAu4zU7yIXy4I+zrRDvZbl9NxVuqaoEWj9zFXj+g6RC0zl5EeUYOBHgtpF+YwaIzGL2HLGn1HHKUy2ym1HZrVqAo+S2scBL9BGUSrLm9JChTnrb+5gUZwNPKUGZ86TiXqEsmEsObnsqTi4lkTj4zJONX9l86xvdfSFWVu2PqHbmqq8SxrrBYhszTjUDfURQFgkd0EYzqFxFyfu+rTDW03CTxpyekJbAZY6zjIWi0GDLaELqFfmLeQpVnTzHi2TNtEe9LA2MmwfQsqxLbPIxjCmySjBL6Csu4NPZfWxZTH+pxh/QUrvOXlPXvYDj1SafJ3gLtKkA1JbkPdOJp0Ovlumk5tbh3oc8O0mCRnxB4woHmtdrizChze3egi7iie/c9JMBiGB57o28gVbGkseq0r0aN8V78cc7oc5ccPTYh7yUwj5RDB28HOwBgDYCv+jiyunJHSacDiQF1Xf1sDCledVhUn36FAeW7XkVNx78Ta5zJiOrqYahxp+1wOpTX5zhziNDDCtoGpFPigbbL+KPclxKxRt9MhuTCJppG9RPGcME5NvC4u6TdSx426jGajMu5LFt/mtTi5aHlQrIsmlkfhZXn0YPdjQjI7mZUSxhST906qqhpgxM5zX0/4cOLy3hl0pwXrWE9Nyzw3mH3zbIuj5+LLrssFHXDbhnMGpNIbFN7M8XGU/ZIw9ilDJtL8cQYaZAsCdjq1HTVQ1sLxWQWFbDCIM3+z7YIC/BjiEcTd4z3D8Nu1X1xu5isRh7oD2865Hs/0X9bThtAOdbTOXIkSPHl9Gl+GkiFP7q+Hz9HUViFEW758tq+NOEuv7LOhIlURSLCCL4vX0B/vJ/jtN5V5IInQTMS+EqbX6GVmUVZTCC7toWoPcuP0CruynFMRPj+CFEBX8rFsXo+O3p9WxKkhht1+vd6+v1en3drYsSZQVyalsqFkvb4zeX4/52PK/2/nBI7Q73lxINHzg6gANR+gFv8VghVuIBHUBWRdH8dm/xGG4hKemGj04o0UDK336wQYDkf4U0SityuI9w+kvRYf9zpIY75JvYMd0NyX3R/L36Vnf5560pYk/4yDO7RG4fTdo3pO3zt9HaP29BvxLX+MCE5jcM5V2JNgrJ3J6/gZd/jEwUIELqIiVTCmP4YsaNVSxFm9M/ZTQ8bbakqYsmDh9KKZPfde13cVeFvMzrv/KXv7qadMwUpSu2MozgwSF1c/dmJqeQWNpujn+dl3+MfYTcdCHtcQXPSausJzbs7Ab+Kj6v/L/VVv3Vc3T3EUyha9yDnkWY5pl75i6QFJyYkErb1+evS8Lh6gZcxKwZKJR4uSh6ZpajEK1jVCryEM1SdDjuP+kyf39+iUomJ6BE8ZBY6cokw/jRO25ilv6CYnV3vaz8DzitO1wdN69b4BP+jaK0Y9L1CqP3yFGUFh/E+F2mKf6+3o4nqDweOK47HPr71fF2WBdNM80H5eqVJeBHmaXH0XrO9BZ1PJBoUKPtXq+bl9vlfD6fTqvT6Xw+Xl42ULKtgXOkTDr4+d97bj1HKDb/HAL/EpmPecWvhwRLECb6K0niG6tBkMT02O+Czim+SwwMT9tHUfw0RHF7yHCIXyqWzu/hBLF/Lv7ZXe9nVCptzpl5eJCky3s5IXftHmyGPspIKm5vj3rKLnq3nwj841X8or/AZPh9eSNn/E9Ms65/voL8+hwx2N+ul782qhj4q8s61ZX/TMiUYL/9F4QIKmB+XdfR4waUpCOWxGh9fdl/y9ZtCHr1y9Y0Ua9Os4ONqwQubg/nDw2kv4GKvz/dDtfrbr2NIIrwD9yG7zYvl9Pe/8nP9t3u0Pf3BL4PpuH/zOe4HDly5MiRI0eOHDly5MiRI0eOn8N/wJ3xemuJ9DUAAAAASUVORK5CYII=;container=0;" vertex="1" parent="1">
          <mxGeometry y="-374.2857142857142" width="64.28571428571429" height="64.28571428571429" as="geometry" />
        </mxCell>
        <mxCell id="iH1DfiRrB-YtXp9Mqeux-78" value="EC2" style="outlineConnect=0;dashed=0;verticalLabelPosition=bottom;verticalAlign=top;align=center;html=1;shape=mxgraph.aws3.ec2;fillColor=#F58534;gradientColor=none;" vertex="1" parent="1">
          <mxGeometry x="108.5" y="-430" width="76.5" height="93" as="geometry" />
        </mxCell>
        <mxCell id="iH1DfiRrB-YtXp9Mqeux-79" value="On every reboot EC2 pull code from GitHub.&lt;br&gt;Build using .NET SDK and run server&lt;br&gt;Backernd serve via ALB" style="text;html=1;align=center;verticalAlign=middle;resizable=0;points=[];autosize=1;strokeColor=none;fillColor=none;" vertex="1" parent="1">
          <mxGeometry x="51.5" y="-304" width="260" height="60" as="geometry" />
        </mxCell>
        <mxCell id="iH1DfiRrB-YtXp9Mqeux-82" value="ALB" style="outlineConnect=0;dashed=0;verticalLabelPosition=bottom;verticalAlign=top;align=center;html=1;shape=mxgraph.aws3.application_load_balancer;fillColor=#F58534;gradientColor=none;" vertex="1" parent="1">
          <mxGeometry x="280" y="-419.5" width="69" height="72" as="geometry" />
        </mxCell>
        <mxCell id="iH1DfiRrB-YtXp9Mqeux-84" style="edgeStyle=orthogonalEdgeStyle;rounded=0;orthogonalLoop=1;jettySize=auto;html=1;entryX=0;entryY=0.5;entryDx=0;entryDy=0;exitX=1;exitY=0.5;exitDx=0;exitDy=0;" edge="1" parent="1" source="AcxdMaKK0mU5kZiv2lnr-31" target="iH1DfiRrB-YtXp9Mqeux-74">
          <mxGeometry relative="1" as="geometry">
            <mxPoint x="-294" y="-671" as="sourcePoint" />
            <mxPoint x="-45" y="-624" as="targetPoint" />
            <Array as="points">
              <mxPoint x="-180" y="-681" />
              <mxPoint x="-180" y="-387" />
            </Array>
          </mxGeometry>
        </mxCell>
      </root>
    </mxGraphModel>
  </diagram>
</mxfile>
